<mxfile host="65bd71144e">
    <diagram id="H2kutYLFEtj3U_sXwFag" name="Page-1">
        <mxGraphModel dx="2236" dy="809" grid="1" gridSize="10" guides="1" tooltips="1" connect="1" arrows="1" fold="1" page="1" pageScale="1" pageWidth="850" pageHeight="1100" math="0" shadow="0">
            <root>
                <mxCell id="0"/>
                <mxCell id="1" parent="0"/>
                <mxCell id="2" value="Mapper t = t + &quot;333&quot;&lt;br&gt;&lt;br&gt;App lambda 834" style="rounded=0;whiteSpace=wrap;html=1;fillColor=#60a917;fontColor=#ffffff;strokeColor=#2D7600;" parent="1" vertex="1">
                    <mxGeometry x="530" y="220" width="120" height="60" as="geometry"/>
                </mxCell>
                <mxCell id="6" style="edgeStyle=none;html=1;entryX=0;entryY=0.5;entryDx=0;entryDy=0;" parent="1" source="4" target="2" edge="1">
                    <mxGeometry relative="1" as="geometry"/>
                </mxCell>
                <mxCell id="9" style="edgeStyle=none;html=1;exitX=1;exitY=0.5;exitDx=0;exitDy=0;entryX=0;entryY=0.25;entryDx=0;entryDy=0;" parent="1" source="7" target="8" edge="1">
                    <mxGeometry relative="1" as="geometry"/>
                </mxCell>
                <mxCell id="8" value="FluxArray" style="rounded=0;whiteSpace=wrap;html=1;glass=0;fillColor=#d80073;fontColor=#ffffff;strokeColor=#A50040;" parent="1" vertex="1">
                    <mxGeometry x="530" y="320" width="120" height="60" as="geometry"/>
                </mxCell>
                <mxCell id="10" value="" style="group" parent="1" vertex="1" connectable="0">
                    <mxGeometry x="30" y="80" width="350" height="290" as="geometry"/>
                </mxCell>
                <mxCell id="3" value="" style="rounded=0;whiteSpace=wrap;html=1;fillColor=none;glass=0;align=left;" parent="10" vertex="1">
                    <mxGeometry width="350" height="290" as="geometry"/>
                </mxCell>
                <mxCell id="4" value="mapper" style="rounded=0;whiteSpace=wrap;html=1;glass=0;fillColor=none;" parent="10" vertex="1">
                    <mxGeometry x="115" y="60" width="120" height="60" as="geometry"/>
                </mxCell>
                <mxCell id="5" value="FluxMapFusable&amp;nbsp; &amp;nbsp;842" style="text;html=1;strokeColor=#006EAF;fillColor=#1ba1e2;align=center;verticalAlign=middle;whiteSpace=wrap;rounded=0;glass=0;fontColor=#ffffff;" parent="10" vertex="1">
                    <mxGeometry x="10" y="20" width="190" height="30" as="geometry"/>
                </mxCell>
                <mxCell id="7" value="source" style="rounded=0;whiteSpace=wrap;html=1;glass=0;fillColor=none;" parent="10" vertex="1">
                    <mxGeometry x="115" y="150" width="120" height="60" as="geometry"/>
                </mxCell>
                <mxCell id="11" value="Mapper t = t + &quot;11111&quot;&lt;br&gt;&lt;br&gt;App lambda 1025" style="rounded=0;whiteSpace=wrap;html=1;fillColor=#60a917;fontColor=#ffffff;strokeColor=#2D7600;" parent="1" vertex="1">
                    <mxGeometry x="530" y="490" width="120" height="60" as="geometry"/>
                </mxCell>
                <mxCell id="12" value="" style="group" parent="1" vertex="1" connectable="0">
                    <mxGeometry x="50" y="450" width="350" height="290" as="geometry"/>
                </mxCell>
                <mxCell id="13" value="" style="rounded=0;whiteSpace=wrap;html=1;fillColor=none;glass=0;align=left;" parent="12" vertex="1">
                    <mxGeometry width="350" height="290" as="geometry"/>
                </mxCell>
                <mxCell id="14" value="mapper" style="rounded=0;whiteSpace=wrap;html=1;glass=0;fillColor=none;" parent="12" vertex="1">
                    <mxGeometry x="115" y="60" width="120" height="60" as="geometry"/>
                </mxCell>
                <mxCell id="15" value="FluxMapFusable&amp;nbsp; &amp;nbsp;1035" style="text;html=1;strokeColor=#006EAF;fillColor=#1ba1e2;align=center;verticalAlign=middle;whiteSpace=wrap;rounded=0;glass=0;fontColor=#ffffff;" parent="12" vertex="1">
                    <mxGeometry x="10" y="20" width="190" height="30" as="geometry"/>
                </mxCell>
                <mxCell id="16" value="source" style="rounded=0;whiteSpace=wrap;html=1;glass=0;fillColor=none;" parent="12" vertex="1">
                    <mxGeometry x="115" y="150" width="120" height="60" as="geometry"/>
                </mxCell>
                <mxCell id="19" value="&lt;pre style=&quot;background-color:#2b2b2b;color:#a9b7c6;font-family:'JetBrains Mono',monospace;font-size:12.0pt;&quot;&gt;&lt;span style=&quot;color:#9876aa;&quot;&gt;optimizableOperator&lt;/span&gt;&lt;/pre&gt;" style="rounded=0;whiteSpace=wrap;html=1;glass=0;fillColor=none;" parent="12" vertex="1">
                    <mxGeometry x="115" y="220" width="120" height="60" as="geometry"/>
                </mxCell>
                <mxCell id="17" style="edgeStyle=none;html=1;exitX=1;exitY=0.5;exitDx=0;exitDy=0;entryX=0;entryY=0.5;entryDx=0;entryDy=0;" parent="1" source="14" target="11" edge="1">
                    <mxGeometry relative="1" as="geometry"/>
                </mxCell>
                <mxCell id="18" style="edgeStyle=orthogonalEdgeStyle;html=1;entryX=0;entryY=0.5;entryDx=0;entryDy=0;curved=1;exitX=0;exitY=0.5;exitDx=0;exitDy=0;" parent="1" source="16" target="3" edge="1">
                    <mxGeometry relative="1" as="geometry">
                        <Array as="points">
                            <mxPoint x="165" y="600"/>
                            <mxPoint x="-100" y="600"/>
                            <mxPoint x="-100" y="225"/>
                        </Array>
                    </mxGeometry>
                </mxCell>
                <mxCell id="20" style="edgeStyle=orthogonalEdgeStyle;curved=1;html=1;entryX=0;entryY=0.5;entryDx=0;entryDy=0;exitX=0;exitY=0.5;exitDx=0;exitDy=0;" parent="1" source="19" target="3" edge="1">
                    <mxGeometry relative="1" as="geometry">
                        <Array as="points">
                            <mxPoint x="-50" y="700"/>
                            <mxPoint x="-50" y="225"/>
                        </Array>
                    </mxGeometry>
                </mxCell>
                <mxCell id="21" style="edgeStyle=orthogonalEdgeStyle;curved=1;html=1;entryX=0;entryY=0.5;entryDx=0;entryDy=0;" parent="1" source="13" target="22" edge="1">
                    <mxGeometry relative="1" as="geometry">
                        <mxPoint x="360" y="960" as="targetPoint"/>
                    </mxGeometry>
                </mxCell>
                <mxCell id="29" style="edgeStyle=orthogonalEdgeStyle;curved=1;html=1;entryX=0;entryY=0.75;entryDx=0;entryDy=0;" parent="1" source="22" target="25" edge="1">
                    <mxGeometry relative="1" as="geometry"/>
                </mxCell>
                <mxCell id="31" value="生成" style="edgeLabel;html=1;align=center;verticalAlign=middle;resizable=0;points=[];" parent="29" vertex="1" connectable="0">
                    <mxGeometry x="-0.0792" y="-1" relative="1" as="geometry">
                        <mxPoint y="1" as="offset"/>
                    </mxGeometry>
                </mxCell>
                <mxCell id="22" value="call &lt;br&gt;subscribe" style="rounded=0;whiteSpace=wrap;html=1;glass=0;fillColor=#6a00ff;fontColor=#ffffff;strokeColor=#3700CC;" parent="1" vertex="1">
                    <mxGeometry x="630" y="850" width="120" height="60" as="geometry"/>
                </mxCell>
                <mxCell id="23" value="consumer printf&lt;br&gt;&lt;br&gt;App lambda 1045" style="rounded=0;whiteSpace=wrap;html=1;fillColor=#f0a30a;fontColor=#000000;strokeColor=#BD7000;" parent="1" vertex="1">
                    <mxGeometry x="890" y="730" width="120" height="60" as="geometry"/>
                </mxCell>
                <mxCell id="28" style="edgeStyle=orthogonalEdgeStyle;curved=1;html=1;entryX=0;entryY=0.5;entryDx=0;entryDy=0;exitX=0;exitY=0.5;exitDx=0;exitDy=0;" parent="1" source="27" target="23" edge="1">
                    <mxGeometry relative="1" as="geometry">
                        <Array as="points">
                            <mxPoint x="860" y="940"/>
                            <mxPoint x="860" y="760"/>
                        </Array>
                    </mxGeometry>
                </mxCell>
                <mxCell id="30" value="" style="group" parent="1" vertex="1" connectable="0">
                    <mxGeometry x="890" y="830" width="300" height="200" as="geometry"/>
                </mxCell>
                <mxCell id="25" value="" style="rounded=0;whiteSpace=wrap;html=1;glass=0;fillColor=none;" parent="30" vertex="1">
                    <mxGeometry width="300" height="200" as="geometry"/>
                </mxCell>
                <mxCell id="26" value="LambdaSubscriber&amp;nbsp; 1060" style="text;html=1;strokeColor=none;fillColor=none;align=left;verticalAlign=middle;whiteSpace=wrap;rounded=0;glass=0;" parent="30" vertex="1">
                    <mxGeometry x="20" y="20" width="180" height="30" as="geometry"/>
                </mxCell>
                <mxCell id="27" value="consumer" style="rounded=0;whiteSpace=wrap;html=1;glass=0;fillColor=none;" parent="30" vertex="1">
                    <mxGeometry x="20" y="80" width="130" height="60" as="geometry"/>
                </mxCell>
                <mxCell id="32" style="edgeStyle=orthogonalEdgeStyle;curved=1;html=1;entryX=0;entryY=0.25;entryDx=0;entryDy=0;" parent="1" source="13" target="33" edge="1">
                    <mxGeometry relative="1" as="geometry">
                        <mxPoint x="630" y="1130" as="targetPoint"/>
                    </mxGeometry>
                </mxCell>
                <mxCell id="39" style="edgeStyle=orthogonalEdgeStyle;curved=1;html=1;entryX=0;entryY=0.5;entryDx=0;entryDy=0;exitX=0.5;exitY=1;exitDx=0;exitDy=0;" parent="1" source="33" target="36" edge="1">
                    <mxGeometry relative="1" as="geometry"/>
                </mxCell>
                <mxCell id="40" value="生成" style="edgeLabel;html=1;align=center;verticalAlign=middle;resizable=0;points=[];" parent="39" vertex="1" connectable="0">
                    <mxGeometry x="-0.3763" y="37" relative="1" as="geometry">
                        <mxPoint as="offset"/>
                    </mxGeometry>
                </mxCell>
                <mxCell id="33" value="call&lt;br&gt;&lt;pre style=&quot;background-color:#282c34;color:#bbbbbb;font-family:'JetBrains Mono',monospace;font-size:12.0pt;&quot;&gt;&lt;span style=&quot;color:#61afef;&quot;&gt;subscribeOrReturn&lt;/span&gt;&lt;/pre&gt;" style="rounded=0;whiteSpace=wrap;html=1;glass=0;fillColor=#6a00ff;fontColor=#ffffff;strokeColor=#3700CC;" parent="1" vertex="1">
                    <mxGeometry x="630" y="1150" width="170" height="70" as="geometry"/>
                </mxCell>
                <mxCell id="34" style="edgeStyle=orthogonalEdgeStyle;curved=1;html=1;exitX=0.5;exitY=1;exitDx=0;exitDy=0;" parent="1" source="25" target="33" edge="1">
                    <mxGeometry relative="1" as="geometry"/>
                </mxCell>
                <mxCell id="35" value="参数" style="edgeLabel;html=1;align=center;verticalAlign=middle;resizable=0;points=[];" parent="34" vertex="1" connectable="0">
                    <mxGeometry x="-0.1101" y="2" relative="1" as="geometry">
                        <mxPoint as="offset"/>
                    </mxGeometry>
                </mxCell>
                <mxCell id="43" style="edgeStyle=orthogonalEdgeStyle;curved=1;html=1;entryX=0.79;entryY=0.998;entryDx=0;entryDy=0;entryPerimeter=0;" parent="1" source="41" target="25" edge="1">
                    <mxGeometry relative="1" as="geometry"/>
                </mxCell>
                <mxCell id="44" value="" style="group" parent="1" vertex="1" connectable="0">
                    <mxGeometry x="880" y="1230" width="310" height="240" as="geometry"/>
                </mxCell>
                <mxCell id="36" value="" style="rounded=0;whiteSpace=wrap;html=1;glass=0;fillColor=none;" parent="44" vertex="1">
                    <mxGeometry width="310" height="240" as="geometry"/>
                </mxCell>
                <mxCell id="37" value="&lt;pre style=&quot;background-color:#282c34;color:#bbbbbb;font-family:'JetBrains Mono',monospace;font-size:12.0pt;&quot;&gt;&lt;span style=&quot;color:#e5c07b;&quot;&gt;MapFuseableSubscriber  1106&lt;/span&gt;&lt;/pre&gt;" style="text;html=1;strokeColor=none;fillColor=none;align=center;verticalAlign=middle;whiteSpace=wrap;rounded=0;glass=0;" parent="44" vertex="1">
                    <mxGeometry x="10" y="10" width="280" height="40" as="geometry"/>
                </mxCell>
                <mxCell id="41" value="actual" style="rounded=0;whiteSpace=wrap;html=1;glass=0;fillColor=none;" parent="44" vertex="1">
                    <mxGeometry x="35" y="70" width="125" height="40" as="geometry"/>
                </mxCell>
                <mxCell id="42" value="mapper&lt;br&gt;1025 倒1" style="rounded=0;whiteSpace=wrap;html=1;glass=0;fillColor=none;" parent="44" vertex="1">
                    <mxGeometry x="35" y="140" width="125" height="40" as="geometry"/>
                </mxCell>
                <mxCell id="45" style="edgeStyle=orthogonalEdgeStyle;curved=1;html=1;entryX=0.5;entryY=0;entryDx=0;entryDy=0;" parent="1" source="36" target="46" edge="1">
                    <mxGeometry relative="1" as="geometry">
                        <mxPoint x="1035" y="1590" as="targetPoint"/>
                    </mxGeometry>
                </mxCell>
                <mxCell id="47" style="edgeStyle=orthogonalEdgeStyle;curved=1;html=1;exitX=0.5;exitY=1;exitDx=0;exitDy=0;entryX=0;entryY=0.5;entryDx=0;entryDy=0;" parent="1" source="46" target="48" edge="1">
                    <mxGeometry relative="1" as="geometry">
                        <mxPoint x="1230" y="1740" as="targetPoint"/>
                    </mxGeometry>
                </mxCell>
                <mxCell id="46" value="回溯到&lt;br&gt;&lt;span style=&quot;color: rgb(255, 255, 255);&quot;&gt;FluxMapFusable&amp;nbsp; &amp;nbsp;842&lt;/span&gt;" style="rounded=0;whiteSpace=wrap;html=1;glass=0;fillColor=none;" parent="1" vertex="1">
                    <mxGeometry x="975" y="1600" width="120" height="60" as="geometry"/>
                </mxCell>
                <mxCell id="56" style="edgeStyle=orthogonalEdgeStyle;curved=1;html=1;" parent="1" source="48" edge="1">
                    <mxGeometry relative="1" as="geometry">
                        <mxPoint x="1670" y="1760" as="targetPoint"/>
                    </mxGeometry>
                </mxCell>
                <mxCell id="57" value="生成" style="edgeLabel;html=1;align=center;verticalAlign=middle;resizable=0;points=[];" parent="56" vertex="1" connectable="0">
                    <mxGeometry x="-0.0839" y="-3" relative="1" as="geometry">
                        <mxPoint y="1" as="offset"/>
                    </mxGeometry>
                </mxCell>
                <mxCell id="59" style="edgeStyle=orthogonalEdgeStyle;curved=1;html=1;entryX=0;entryY=0.5;entryDx=0;entryDy=0;exitX=0.5;exitY=1;exitDx=0;exitDy=0;" parent="1" source="48" target="60" edge="1">
                    <mxGeometry relative="1" as="geometry">
                        <mxPoint x="1710" y="2140" as="targetPoint"/>
                    </mxGeometry>
                </mxCell>
                <mxCell id="61" value="到第一个publisher operator了&lt;br&gt;FluxArray" style="edgeLabel;html=1;align=center;verticalAlign=middle;resizable=0;points=[];" parent="59" vertex="1" connectable="0">
                    <mxGeometry x="0.1688" y="42" relative="1" as="geometry">
                        <mxPoint y="1" as="offset"/>
                    </mxGeometry>
                </mxCell>
                <mxCell id="62" value="call" style="edgeLabel;html=1;align=center;verticalAlign=middle;resizable=0;points=[];" parent="59" vertex="1" connectable="0">
                    <mxGeometry x="0.5979" y="6" relative="1" as="geometry">
                        <mxPoint as="offset"/>
                    </mxGeometry>
                </mxCell>
                <mxCell id="48" value="call&amp;nbsp;&lt;br&gt;&lt;pre style=&quot;background-color:#282c34;color:#bbbbbb;font-family:'JetBrains Mono',monospace;font-size:12.0pt;&quot;&gt;&lt;span style=&quot;color:#61afef;&quot;&gt;subscribeOrReturn&lt;/span&gt;&lt;/pre&gt;" style="rounded=0;whiteSpace=wrap;html=1;glass=0;fillColor=none;" parent="1" vertex="1">
                    <mxGeometry x="1340" y="1720" width="180" height="70" as="geometry"/>
                </mxCell>
                <mxCell id="49" style="edgeStyle=orthogonalEdgeStyle;curved=1;html=1;entryX=0.5;entryY=0;entryDx=0;entryDy=0;" parent="1" source="36" target="48" edge="1">
                    <mxGeometry relative="1" as="geometry"/>
                </mxCell>
                <mxCell id="50" value="参数" style="edgeLabel;html=1;align=center;verticalAlign=middle;resizable=0;points=[];" parent="49" vertex="1" connectable="0">
                    <mxGeometry x="0.1362" y="-38" relative="1" as="geometry">
                        <mxPoint y="1" as="offset"/>
                    </mxGeometry>
                </mxCell>
                <mxCell id="51" value="" style="group" parent="1" vertex="1" connectable="0">
                    <mxGeometry x="1660" y="1640" width="310" height="240" as="geometry"/>
                </mxCell>
                <mxCell id="52" value="" style="rounded=0;whiteSpace=wrap;html=1;glass=0;fillColor=none;" parent="51" vertex="1">
                    <mxGeometry width="310" height="240" as="geometry"/>
                </mxCell>
                <mxCell id="53" value="&lt;pre style=&quot;background-color:#282c34;color:#bbbbbb;font-family:'JetBrains Mono',monospace;font-size:12.0pt;&quot;&gt;&lt;span style=&quot;color:#e5c07b;&quot;&gt;MapFuseableSubscriber  1228&lt;/span&gt;&lt;/pre&gt;" style="text;html=1;strokeColor=none;fillColor=none;align=center;verticalAlign=middle;whiteSpace=wrap;rounded=0;glass=0;" parent="51" vertex="1">
                    <mxGeometry x="10" y="10" width="280" height="40" as="geometry"/>
                </mxCell>
                <mxCell id="54" value="actual" style="rounded=0;whiteSpace=wrap;html=1;glass=0;fillColor=none;" parent="51" vertex="1">
                    <mxGeometry x="35" y="70" width="125" height="40" as="geometry"/>
                </mxCell>
                <mxCell id="55" value="mapper&lt;br&gt;834 第一个" style="rounded=0;whiteSpace=wrap;html=1;glass=0;fillColor=none;" parent="51" vertex="1">
                    <mxGeometry x="35" y="140" width="125" height="40" as="geometry"/>
                </mxCell>
                <mxCell id="58" style="edgeStyle=orthogonalEdgeStyle;curved=1;html=1;entryX=1;entryY=0.25;entryDx=0;entryDy=0;" parent="1" source="54" target="36" edge="1">
                    <mxGeometry relative="1" as="geometry">
                        <Array as="points">
                            <mxPoint x="1580" y="1730"/>
                            <mxPoint x="1580" y="1290"/>
                        </Array>
                    </mxGeometry>
                </mxCell>
                <mxCell id="65" style="edgeStyle=orthogonalEdgeStyle;curved=1;html=1;entryX=0;entryY=0.5;entryDx=0;entryDy=0;" parent="1" source="60" target="66" edge="1">
                    <mxGeometry relative="1" as="geometry">
                        <mxPoint x="2380" y="2100" as="targetPoint"/>
                    </mxGeometry>
                </mxCell>
                <mxCell id="60" value="call&lt;br&gt;subscriber" style="rounded=0;whiteSpace=wrap;html=1;glass=0;fillColor=#6a00ff;fontColor=#ffffff;strokeColor=#3700CC;" parent="1" vertex="1">
                    <mxGeometry x="2080" y="2070" width="120" height="60" as="geometry"/>
                </mxCell>
                <mxCell id="63" style="edgeStyle=orthogonalEdgeStyle;curved=1;html=1;entryX=0.5;entryY=0;entryDx=0;entryDy=0;" parent="1" source="52" target="60" edge="1">
                    <mxGeometry relative="1" as="geometry"/>
                </mxCell>
                <mxCell id="64" value="参数" style="edgeLabel;html=1;align=center;verticalAlign=middle;resizable=0;points=[];" parent="63" vertex="1" connectable="0">
                    <mxGeometry x="0.2646" y="-17" relative="1" as="geometry">
                        <mxPoint as="offset"/>
                    </mxGeometry>
                </mxCell>
                <mxCell id="70" value="" style="edgeStyle=orthogonalEdgeStyle;curved=1;html=1;entryX=0;entryY=0.5;entryDx=0;entryDy=0;" parent="1" source="66" target="69" edge="1">
                    <mxGeometry relative="1" as="geometry"/>
                </mxCell>
                <mxCell id="71" value="从1128调起" style="edgeLabel;html=1;align=center;verticalAlign=middle;resizable=0;points=[];" parent="70" vertex="1" connectable="0">
                    <mxGeometry x="-0.0668" y="2" relative="1" as="geometry">
                        <mxPoint as="offset"/>
                    </mxGeometry>
                </mxCell>
                <mxCell id="66" value="call&lt;br&gt;&lt;pre style=&quot;background-color:#282c34;color:#bbbbbb;font-family:'JetBrains Mono',monospace;font-size:12.0pt;&quot;&gt;&lt;span style=&quot;color:#61afef;&quot;&gt;subscribe&lt;/span&gt;(&lt;span style=&quot;color:#d19a66;&quot;&gt;actual&lt;/span&gt;, &lt;span style=&quot;color:#ef596f;&quot;&gt;array&lt;/span&gt;)&lt;/pre&gt;&lt;pre style=&quot;background-color:#282c34;color:#bbbbbb;font-family:'JetBrains Mono',monospace;font-size:12.0pt;&quot;&gt;array就是数据源 actual是1128&lt;/pre&gt;" style="rounded=0;whiteSpace=wrap;html=1;glass=0;fillColor=#6a00ff;fontColor=#ffffff;strokeColor=#3700CC;" parent="1" vertex="1">
                    <mxGeometry x="2401" y="2070" width="270" height="70" as="geometry"/>
                </mxCell>
                <mxCell id="67" style="edgeStyle=orthogonalEdgeStyle;curved=1;html=1;entryX=0.25;entryY=0;entryDx=0;entryDy=0;" parent="1" source="52" target="66" edge="1">
                    <mxGeometry relative="1" as="geometry"/>
                </mxCell>
                <mxCell id="68" value="参数" style="edgeLabel;html=1;align=center;verticalAlign=middle;resizable=0;points=[];" parent="67" vertex="1" connectable="0">
                    <mxGeometry x="-0.0625" y="-81" relative="1" as="geometry">
                        <mxPoint as="offset"/>
                    </mxGeometry>
                </mxCell>
                <mxCell id="81" value="" style="edgeStyle=orthogonalEdgeStyle;curved=1;html=1;" parent="1" source="69" target="80" edge="1">
                    <mxGeometry relative="1" as="geometry"/>
                </mxCell>
                <mxCell id="82" value="再从1106调起&lt;br&gt;actual.onSubscribe" style="edgeLabel;html=1;align=center;verticalAlign=middle;resizable=0;points=[];" parent="81" vertex="1" connectable="0">
                    <mxGeometry x="-0.2644" y="-14" relative="1" as="geometry">
                        <mxPoint y="1" as="offset"/>
                    </mxGeometry>
                </mxCell>
                <mxCell id="83" value="参数1128" style="edgeLabel;html=1;align=center;verticalAlign=middle;resizable=0;points=[];" parent="81" vertex="1" connectable="0">
                    <mxGeometry x="0.6552" y="-36" relative="1" as="geometry">
                        <mxPoint as="offset"/>
                    </mxGeometry>
                </mxCell>
                <mxCell id="69" value="call&lt;br&gt;&lt;pre style=&quot;background-color:#282c34;color:#bbbbbb;font-family:'JetBrains Mono',monospace;font-size:12.0pt;&quot;&gt;&lt;span style=&quot;color:#61afef;&quot;&gt;onSubscribe&lt;/span&gt;&lt;/pre&gt;" style="whiteSpace=wrap;html=1;fillColor=#6a00ff;strokeColor=#3700CC;fontColor=#ffffff;rounded=0;glass=0;" parent="1" vertex="1">
                    <mxGeometry x="2855" y="1630" width="120" height="60" as="geometry"/>
                </mxCell>
                <mxCell id="77" style="edgeStyle=orthogonalEdgeStyle;curved=1;html=1;entryX=0.25;entryY=0;entryDx=0;entryDy=0;" parent="1" source="72" target="69" edge="1">
                    <mxGeometry relative="1" as="geometry"/>
                </mxCell>
                <mxCell id="78" value="创建 参数" style="edgeLabel;html=1;align=center;verticalAlign=middle;resizable=0;points=[];" parent="77" vertex="1" connectable="0">
                    <mxGeometry x="-0.175" y="-3" relative="1" as="geometry">
                        <mxPoint as="offset"/>
                    </mxGeometry>
                </mxCell>
                <mxCell id="75" style="edgeStyle=orthogonalEdgeStyle;curved=1;html=1;" parent="1" source="74" target="52" edge="1">
                    <mxGeometry relative="1" as="geometry">
                        <mxPoint x="2460" y="1660" as="targetPoint"/>
                    </mxGeometry>
                </mxCell>
                <mxCell id="99" value="被创建" style="edgeLabel;html=1;align=center;verticalAlign=middle;resizable=0;points=[];" parent="75" vertex="1" connectable="0">
                    <mxGeometry x="-0.3649" y="11" relative="1" as="geometry">
                        <mxPoint as="offset"/>
                    </mxGeometry>
                </mxCell>
                <mxCell id="79" value="" style="group" parent="1" vertex="1" connectable="0">
                    <mxGeometry x="2810" y="1360" width="270" height="170" as="geometry"/>
                </mxCell>
                <mxCell id="72" value="" style="rounded=0;whiteSpace=wrap;html=1;glass=0;fillColor=none;" parent="79" vertex="1">
                    <mxGeometry width="270" height="170" as="geometry"/>
                </mxCell>
                <mxCell id="73" value="&lt;pre style=&quot;background-color:#282c34;color:#bbbbbb;font-family:'JetBrains Mono',monospace;font-size:12.0pt;&quot;&gt;&lt;span style=&quot;color:#e5c07b;&quot;&gt;ArraySubscription  1405&lt;/span&gt;&lt;/pre&gt;" style="text;html=1;strokeColor=none;fillColor=none;align=center;verticalAlign=middle;whiteSpace=wrap;rounded=0;glass=0;" parent="79" vertex="1">
                    <mxGeometry x="20" y="20" width="210" height="30" as="geometry"/>
                </mxCell>
                <mxCell id="74" value="actual&amp;nbsp; 1128" style="rounded=0;whiteSpace=wrap;html=1;glass=0;fillColor=none;" parent="79" vertex="1">
                    <mxGeometry x="30" y="60" width="120" height="40" as="geometry"/>
                </mxCell>
                <mxCell id="76" value="array&lt;br&gt;数据源" style="rounded=1;whiteSpace=wrap;html=1;glass=0;fillColor=none;" parent="79" vertex="1">
                    <mxGeometry x="30" y="110" width="120" height="40" as="geometry"/>
                </mxCell>
                <mxCell id="85" value="" style="edgeStyle=orthogonalEdgeStyle;curved=1;html=1;" parent="1" source="80" target="84" edge="1">
                    <mxGeometry relative="1" as="geometry"/>
                </mxCell>
                <mxCell id="86" value="从1060 lambdaSubscription调起&lt;br&gt;参数是1106" style="edgeLabel;html=1;align=center;verticalAlign=middle;resizable=0;points=[];" parent="85" vertex="1" connectable="0">
                    <mxGeometry x="-0.375" y="-30" relative="1" as="geometry">
                        <mxPoint as="offset"/>
                    </mxGeometry>
                </mxCell>
                <mxCell id="87" value="调到subscription的头了" style="edgeLabel;html=1;align=center;verticalAlign=middle;resizable=0;points=[];" parent="85" vertex="1" connectable="0">
                    <mxGeometry x="0.6188" y="-17" relative="1" as="geometry">
                        <mxPoint as="offset"/>
                    </mxGeometry>
                </mxCell>
                <mxCell id="80" value="call&lt;br&gt;&lt;pre style=&quot;background-color:#282c34;color:#bbbbbb;font-family:'JetBrains Mono',monospace;font-size:12.0pt;&quot;&gt;&lt;span style=&quot;color:#61afef;&quot;&gt;onSubscribe&lt;/span&gt;&lt;/pre&gt;" style="whiteSpace=wrap;html=1;fillColor=#6a00ff;strokeColor=#3700CC;fontColor=#ffffff;rounded=0;glass=0;" parent="1" vertex="1">
                    <mxGeometry x="3220" y="1790" width="120" height="60" as="geometry"/>
                </mxCell>
                <mxCell id="90" value="" style="edgeStyle=orthogonalEdgeStyle;curved=1;html=1;" parent="1" source="84" target="89" edge="1">
                    <mxGeometry relative="1" as="geometry"/>
                </mxCell>
                <mxCell id="91" value="开始调用subscription的&lt;br&gt;request接口&lt;br&gt;启动数据处理" style="edgeLabel;html=1;align=center;verticalAlign=middle;resizable=0;points=[];" parent="90" vertex="1" connectable="0">
                    <mxGeometry x="-0.2435" y="8" relative="1" as="geometry">
                        <mxPoint y="1" as="offset"/>
                    </mxGeometry>
                </mxCell>
                <mxCell id="92" value="从1106开始" style="edgeLabel;html=1;align=center;verticalAlign=middle;resizable=0;points=[];" parent="90" vertex="1" connectable="0">
                    <mxGeometry x="0.266" y="29" relative="1" as="geometry">
                        <mxPoint y="1" as="offset"/>
                    </mxGeometry>
                </mxCell>
                <mxCell id="84" value="call&lt;br&gt;&lt;pre style=&quot;background-color:#282c34;color:#bbbbbb;font-family:'JetBrains Mono',monospace;font-size:12.0pt;&quot;&gt;&lt;span style=&quot;color:#61afef;&quot;&gt;onSubscribe&lt;/span&gt;&lt;/pre&gt;" style="whiteSpace=wrap;html=1;fillColor=#6a00ff;strokeColor=#3700CC;fontColor=#ffffff;rounded=0;glass=0;" parent="1" vertex="1">
                    <mxGeometry x="3540" y="2040" width="120" height="60" as="geometry"/>
                </mxCell>
                <mxCell id="94" value="" style="edgeStyle=orthogonalEdgeStyle;curved=1;html=1;" parent="1" source="89" target="93" edge="1">
                    <mxGeometry relative="1" as="geometry"/>
                </mxCell>
                <mxCell id="95" value="1128的request" style="edgeLabel;html=1;align=center;verticalAlign=middle;resizable=0;points=[];" parent="94" vertex="1" connectable="0">
                    <mxGeometry x="0.01" y="-3" relative="1" as="geometry">
                        <mxPoint y="1" as="offset"/>
                    </mxGeometry>
                </mxCell>
                <mxCell id="89" value="&lt;pre style=&quot;background-color:#282c34;color:#bbbbbb;font-family:'JetBrains Mono',monospace;font-size:12.0pt;&quot;&gt;&lt;span style=&quot;color:#d19a66;&quot;&gt;s&lt;/span&gt;.&lt;span style=&quot;color:#61afef;&quot;&gt;request&lt;/span&gt;(&lt;span style=&quot;color:#e5c07b;&quot;&gt;Long&lt;/span&gt;.&lt;span style=&quot;color:#d19a66;&quot;&gt;MAX_VALUE&lt;/span&gt;)&lt;/pre&gt;" style="whiteSpace=wrap;html=1;fillColor=#6a00ff;strokeColor=#3700CC;fontColor=#ffffff;rounded=0;glass=0;" parent="1" vertex="1">
                    <mxGeometry x="3940" y="1890" width="250" height="70" as="geometry"/>
                </mxCell>
                <mxCell id="97" value="" style="edgeStyle=orthogonalEdgeStyle;curved=1;html=1;" parent="1" source="93" target="96" edge="1">
                    <mxGeometry relative="1" as="geometry"/>
                </mxCell>
                <mxCell id="98" value="进入1405的request" style="edgeLabel;html=1;align=center;verticalAlign=middle;resizable=0;points=[];" parent="97" vertex="1" connectable="0">
                    <mxGeometry x="-0.1" y="2" relative="1" as="geometry">
                        <mxPoint y="1" as="offset"/>
                    </mxGeometry>
                </mxCell>
                <mxCell id="93" value="&lt;pre style=&quot;background-color:#282c34;color:#bbbbbb;font-family:'JetBrains Mono',monospace;font-size:12.0pt;&quot;&gt;&lt;span style=&quot;color:#d19a66;&quot;&gt;s&lt;/span&gt;.&lt;span style=&quot;color:#61afef;&quot;&gt;request&lt;/span&gt;(&lt;span style=&quot;color:#e5c07b;&quot;&gt;Long&lt;/span&gt;.&lt;span style=&quot;color:#d19a66;&quot;&gt;MAX_VALUE&lt;/span&gt;)&lt;/pre&gt;" style="whiteSpace=wrap;html=1;fillColor=#6a00ff;strokeColor=#3700CC;fontColor=#ffffff;rounded=0;glass=0;" parent="1" vertex="1">
                    <mxGeometry x="3950" y="1630" width="250" height="70" as="geometry"/>
                </mxCell>
                <mxCell id="101" value="" style="edgeStyle=orthogonalEdgeStyle;curved=1;html=1;" parent="1" source="96" target="100" edge="1">
                    <mxGeometry relative="1" as="geometry"/>
                </mxCell>
                <mxCell id="102" value="调用1405的" style="edgeLabel;html=1;align=center;verticalAlign=middle;resizable=0;points=[];" parent="101" vertex="1" connectable="0">
                    <mxGeometry x="-0.1143" y="-2" relative="1" as="geometry">
                        <mxPoint y="1" as="offset"/>
                    </mxGeometry>
                </mxCell>
                <mxCell id="96" value="&lt;pre style=&quot;background-color:#282c34;color:#bbbbbb;font-family:'JetBrains Mono',monospace;font-size:12.0pt;&quot;&gt;&lt;span style=&quot;color:#d19a66;&quot;&gt;s&lt;/span&gt;.&lt;span style=&quot;color:#61afef;&quot;&gt;request&lt;/span&gt;(&lt;span style=&quot;color:#e5c07b;&quot;&gt;Long&lt;/span&gt;.&lt;span style=&quot;color:#d19a66;&quot;&gt;MAX_VALUE&lt;/span&gt;)&lt;/pre&gt;" style="whiteSpace=wrap;html=1;fillColor=#6a00ff;strokeColor=#3700CC;fontColor=#ffffff;rounded=0;glass=0;" parent="1" vertex="1">
                    <mxGeometry x="3950" y="1410" width="250" height="70" as="geometry"/>
                </mxCell>
                <mxCell id="104" value="" style="edgeStyle=orthogonalEdgeStyle;curved=1;html=1;" parent="1" source="100" target="103" edge="1">
                    <mxGeometry relative="1" as="geometry"/>
                </mxCell>
                <mxCell id="105" value="取出Array的一个元素&lt;br&gt;调用onNext进行处理" style="edgeLabel;html=1;align=center;verticalAlign=middle;resizable=0;points=[];" parent="104" vertex="1" connectable="0">
                    <mxGeometry x="0.06" y="1" relative="1" as="geometry">
                        <mxPoint as="offset"/>
                    </mxGeometry>
                </mxCell>
                <mxCell id="100" value="&lt;pre style=&quot;background-color: rgb(40, 44, 52); font-family: &amp;quot;JetBrains Mono&amp;quot;, monospace; font-size: 12pt;&quot;&gt;&lt;font color=&quot;#d19a66&quot;&gt;fastpath&lt;/font&gt;&lt;/pre&gt;" style="whiteSpace=wrap;html=1;fillColor=#6a00ff;strokeColor=#3700CC;fontColor=#ffffff;rounded=0;glass=0;" parent="1" vertex="1">
                    <mxGeometry x="4480" y="1410" width="250" height="70" as="geometry"/>
                </mxCell>
                <mxCell id="107" value="" style="edgeStyle=orthogonalEdgeStyle;curved=1;html=1;" parent="1" source="103" target="106" edge="1">
                    <mxGeometry relative="1" as="geometry"/>
                </mxCell>
                <mxCell id="108" value="1228的onNext" style="edgeLabel;html=1;align=center;verticalAlign=middle;resizable=0;points=[];" parent="107" vertex="1" connectable="0">
                    <mxGeometry x="-0.0143" relative="1" as="geometry">
                        <mxPoint as="offset"/>
                    </mxGeometry>
                </mxCell>
                <mxCell id="103" value="&lt;pre style=&quot;background-color: rgb(40, 44, 52); font-family: &amp;quot;JetBrains Mono&amp;quot;, monospace; font-size: 12pt;&quot;&gt;&lt;font color=&quot;#d19a66&quot;&gt;fastpath&lt;/font&gt;&lt;/pre&gt;" style="whiteSpace=wrap;html=1;fillColor=#6a00ff;strokeColor=#3700CC;fontColor=#ffffff;rounded=0;glass=0;" parent="1" vertex="1">
                    <mxGeometry x="4480" y="1630" width="250" height="70" as="geometry"/>
                </mxCell>
                <mxCell id="110" value="" style="edgeStyle=orthogonalEdgeStyle;curved=1;html=1;" parent="1" source="106" target="109" edge="1">
                    <mxGeometry relative="1" as="geometry"/>
                </mxCell>
                <mxCell id="111" value="1106的onNext" style="edgeLabel;html=1;align=center;verticalAlign=middle;resizable=0;points=[];" parent="110" vertex="1" connectable="0">
                    <mxGeometry x="-0.2" y="-2" relative="1" as="geometry">
                        <mxPoint as="offset"/>
                    </mxGeometry>
                </mxCell>
                <mxCell id="106" value="&lt;pre style=&quot;background-color: rgb(40, 44, 52); font-family: &amp;quot;JetBrains Mono&amp;quot;, monospace; font-size: 12pt;&quot;&gt;&lt;font color=&quot;#d19a66&quot;&gt;在元素上运行第一个mapper&lt;/font&gt;&lt;/pre&gt;" style="whiteSpace=wrap;html=1;fillColor=#6a00ff;strokeColor=#3700CC;fontColor=#ffffff;rounded=0;glass=0;" parent="1" vertex="1">
                    <mxGeometry x="4480" y="1840" width="250" height="70" as="geometry"/>
                </mxCell>
                <mxCell id="115" value="" style="edgeStyle=orthogonalEdgeStyle;curved=1;html=1;" parent="1" source="109" target="114" edge="1">
                    <mxGeometry relative="1" as="geometry"/>
                </mxCell>
                <mxCell id="116" value="lambdasubscriber的onNext调用" style="edgeLabel;html=1;align=center;verticalAlign=middle;resizable=0;points=[];" parent="115" vertex="1" connectable="0">
                    <mxGeometry x="-0.075" y="3" relative="1" as="geometry">
                        <mxPoint as="offset"/>
                    </mxGeometry>
                </mxCell>
                <mxCell id="109" value="&lt;pre style=&quot;background-color: rgb(40, 44, 52); font-family: &amp;quot;JetBrains Mono&amp;quot;, monospace; font-size: 12pt;&quot;&gt;&lt;font color=&quot;#d19a66&quot;&gt;在元素上运行第二个mapper&lt;/font&gt;&lt;/pre&gt;" style="whiteSpace=wrap;html=1;fillColor=#6a00ff;strokeColor=#3700CC;fontColor=#ffffff;rounded=0;glass=0;" parent="1" vertex="1">
                    <mxGeometry x="4480" y="1990" width="250" height="70" as="geometry"/>
                </mxCell>
                <mxCell id="112" value="" style="shape=curlyBracket;whiteSpace=wrap;html=1;rounded=1;labelPosition=left;verticalLabelPosition=middle;align=right;verticalAlign=middle;glass=0;fillColor=none;" parent="1" vertex="1">
                    <mxGeometry x="4390" y="1670" width="30" height="360" as="geometry"/>
                </mxCell>
                <mxCell id="113" value="注意&lt;br&gt;MapFusableSubscriber&lt;br&gt;是反着mapper顺序创建的" style="text;html=1;strokeColor=none;fillColor=none;align=left;verticalAlign=middle;whiteSpace=wrap;rounded=0;glass=0;" parent="1" vertex="1">
                    <mxGeometry x="4300" y="1835" width="60" height="30" as="geometry"/>
                </mxCell>
                <mxCell id="118" value="" style="edgeStyle=orthogonalEdgeStyle;curved=1;html=1;" parent="1" source="114" target="117" edge="1">
                    <mxGeometry relative="1" as="geometry"/>
                </mxCell>
                <mxCell id="114" value="&lt;pre style=&quot;background-color: rgb(40, 44, 52); font-family: &amp;quot;JetBrains Mono&amp;quot;, monospace; font-size: 12pt;&quot;&gt;&lt;font color=&quot;#d19a66&quot;&gt;运行consumer&lt;/font&gt;&lt;/pre&gt;&lt;pre style=&quot;background-color: rgb(40, 44, 52); font-family: &amp;quot;JetBrains Mono&amp;quot;, monospace; font-size: 12pt;&quot;&gt;&lt;font color=&quot;#d19a66&quot;&gt;打印&lt;/font&gt;&lt;/pre&gt;" style="whiteSpace=wrap;html=1;fillColor=#6a00ff;strokeColor=#3700CC;fontColor=#ffffff;rounded=0;glass=0;" parent="1" vertex="1">
                    <mxGeometry x="4480" y="2140" width="250" height="70" as="geometry"/>
                </mxCell>
                <mxCell id="120" value="" style="edgeStyle=orthogonalEdgeStyle;curved=1;html=1;" parent="1" source="117" target="119" edge="1">
                    <mxGeometry relative="1" as="geometry"/>
                </mxCell>
                <mxCell id="121" value="onComplete" style="edgeLabel;html=1;align=center;verticalAlign=middle;resizable=0;points=[];" parent="120" vertex="1" connectable="0">
                    <mxGeometry x="-0.025" y="2" relative="1" as="geometry">
                        <mxPoint as="offset"/>
                    </mxGeometry>
                </mxCell>
                <mxCell id="117" value="&lt;pre style=&quot;background-color: rgb(40, 44, 52); font-family: &amp;quot;JetBrains Mono&amp;quot;, monospace; font-size: 12pt;&quot;&gt;&lt;font color=&quot;#d19a66&quot;&gt;回到ArraySubscription最初的&lt;/font&gt;&lt;/pre&gt;&lt;pre style=&quot;background-color: rgb(40, 44, 52); font-family: &amp;quot;JetBrains Mono&amp;quot;, monospace; font-size: 12pt;&quot;&gt;&lt;font color=&quot;#d19a66&quot;&gt;fastPath函数&lt;/font&gt;&lt;/pre&gt;&lt;pre style=&quot;background-color: rgb(40, 44, 52); font-family: &amp;quot;JetBrains Mono&amp;quot;, monospace; font-size: 12pt;&quot;&gt;&lt;font color=&quot;#d19a66&quot;&gt;取第二个元素重复上面的流程&lt;/font&gt;&lt;/pre&gt;" style="whiteSpace=wrap;html=1;fillColor=#6a00ff;strokeColor=#3700CC;fontColor=#ffffff;rounded=0;glass=0;" parent="1" vertex="1">
                    <mxGeometry x="4480" y="2290" width="250" height="70" as="geometry"/>
                </mxCell>
                <mxCell id="119" value="&lt;font color=&quot;#d19a66&quot;&gt;依次调用subscription链上的onComplete函数&lt;br&gt;关闭流&lt;br&gt;设置done = true&lt;br&gt;&lt;/font&gt;" style="whiteSpace=wrap;html=1;fillColor=#6a00ff;strokeColor=#3700CC;fontColor=#ffffff;rounded=0;glass=0;" parent="1" vertex="1">
                    <mxGeometry x="4480" y="2440" width="250" height="70" as="geometry"/>
                </mxCell>
            </root>
        </mxGraphModel>
    </diagram>
    <diagram id="DmMXSBGen3uthe2-T9X2" name="Page-2">
        <mxGraphModel dx="2026" dy="809" grid="0" gridSize="10" guides="1" tooltips="1" connect="1" arrows="1" fold="1" page="0" pageScale="1" pageWidth="850" pageHeight="1100" math="0" shadow="0">
            <root>
                <mxCell id="0"/>
                <mxCell id="1" parent="0"/>
                <mxCell id="X7lf60Jqiiey2AytOVT0-4" value="" style="edgeStyle=none;html=1;" parent="1" source="X7lf60Jqiiey2AytOVT0-1" target="X7lf60Jqiiey2AytOVT0-3" edge="1">
                    <mxGeometry relative="1" as="geometry"/>
                </mxCell>
                <mxCell id="X7lf60Jqiiey2AytOVT0-29" style="edgeStyle=none;html=1;dashed=1;entryX=0.5;entryY=0;entryDx=0;entryDy=0;" parent="1" source="X7lf60Jqiiey2AytOVT0-1" target="X7lf60Jqiiey2AytOVT0-31" edge="1">
                    <mxGeometry relative="1" as="geometry">
                        <mxPoint x="100" y="782.5" as="targetPoint"/>
                    </mxGeometry>
                </mxCell>
                <mxCell id="X7lf60Jqiiey2AytOVT0-32" value="call&lt;br&gt;FluxArray.Subscribe(M2)" style="edgeLabel;html=1;align=center;verticalAlign=middle;resizable=0;points=[];" parent="X7lf60Jqiiey2AytOVT0-29" vertex="1" connectable="0">
                    <mxGeometry x="0.7613" y="5" relative="1" as="geometry">
                        <mxPoint as="offset"/>
                    </mxGeometry>
                </mxCell>
                <mxCell id="X7lf60Jqiiey2AytOVT0-1" value="&lt;pre style=&quot;background-color:#282c34;color:#bbbbbb;font-family:'JetBrains Mono',monospace;font-size:12.0pt;&quot;&gt;&lt;span style=&quot;color:#e5c07b;&quot;&gt;FluxArray&lt;/span&gt;&lt;/pre&gt;" style="rounded=0;whiteSpace=wrap;html=1;" parent="1" vertex="1">
                    <mxGeometry x="40" y="190" width="120" height="60" as="geometry"/>
                </mxCell>
                <mxCell id="X7lf60Jqiiey2AytOVT0-2" value="&lt;pre style=&quot;background-color:#282c34;color:#bbbbbb;font-family:'JetBrains Mono',monospace;font-size:12.0pt;&quot;&gt;&lt;span style=&quot;color:#e5c07b;&quot;&gt;Flux&lt;/span&gt;&amp;lt;&lt;span style=&quot;color:#e5c07b;&quot;&gt;String&lt;/span&gt;&amp;gt; flux = &lt;span style=&quot;color:#e5c07b;&quot;&gt;Flux&lt;/span&gt;.&lt;span style=&quot;color:#61afef;&quot;&gt;just&lt;/span&gt;(&lt;span style=&quot;color:#89ca78;&quot;&gt;&quot;x&quot;&lt;/span&gt;, &lt;span style=&quot;color:#89ca78;&quot;&gt;&quot;j&quot;&lt;/span&gt;);&lt;br&gt;&lt;div style=&quot;&quot;&gt;&lt;span style=&quot;font-size: 12pt; white-space: normal;&quot;&gt;flux.&lt;/span&gt;&lt;span style=&quot;font-size: 12pt; white-space: normal; color: rgb(97, 175, 239);&quot;&gt;map&lt;/span&gt;&lt;span style=&quot;font-size: 12pt; white-space: normal;&quot;&gt;(&lt;/span&gt;&lt;span style=&quot;font-size: 12pt; white-space: normal; color: rgb(209, 154, 102);&quot;&gt;t &lt;/span&gt;&lt;span style=&quot;font-size: 12pt; white-space: normal;&quot;&gt;-&amp;gt; &lt;/span&gt;&lt;span style=&quot;font-size: 12pt; white-space: normal; color: rgb(209, 154, 102);&quot;&gt;t &lt;/span&gt;&lt;span style=&quot;font-size: 12pt; white-space: normal;&quot;&gt;+ &lt;/span&gt;&lt;span style=&quot;font-size: 12pt; white-space: normal; color: rgb(137, 202, 120);&quot;&gt;&quot;333&quot;&lt;/span&gt;&lt;span style=&quot;font-size: 12pt; white-space: normal;&quot;&gt;).&lt;/span&gt;&lt;span style=&quot;font-size: 12pt; white-space: normal; color: rgb(97, 175, 239);&quot;&gt;map&lt;/span&gt;&lt;span style=&quot;font-size: 12pt; white-space: normal;&quot;&gt;(&lt;/span&gt;&lt;span style=&quot;font-size: 12pt; white-space: normal; color: rgb(209, 154, 102);&quot;&gt;s &lt;/span&gt;&lt;span style=&quot;font-size: 12pt; white-space: normal;&quot;&gt;-&amp;gt; &lt;/span&gt;&lt;span style=&quot;font-size: 12pt; white-space: normal; color: rgb(209, 154, 102);&quot;&gt;s &lt;/span&gt;&lt;span style=&quot;font-size: 12pt; white-space: normal;&quot;&gt;+ &lt;/span&gt;&lt;span style=&quot;font-size: 12pt; white-space: normal; color: rgb(137, 202, 120);&quot;&gt;&quot;1111&quot;&lt;/span&gt;&lt;span style=&quot;font-size: 12pt; white-space: normal;&quot;&gt;).&lt;/span&gt;&lt;span style=&quot;font-size: 12pt; white-space: normal; color: rgb(97, 175, 239);&quot;&gt;subscribe&lt;/span&gt;&lt;span style=&quot;font-size: 12pt; white-space: normal;&quot;&gt;(&lt;/span&gt;&lt;span style=&quot;font-size: 12pt; white-space: normal; color: rgb(229, 192, 123);&quot;&gt;System&lt;/span&gt;&lt;span style=&quot;font-size: 12pt; white-space: normal;&quot;&gt;.&lt;/span&gt;&lt;span style=&quot;font-size: 12pt; white-space: normal; color: rgb(209, 154, 102);&quot;&gt;out&lt;/span&gt;&lt;span style=&quot;font-size: 12pt; white-space: normal;&quot;&gt;::&lt;/span&gt;&lt;span style=&quot;font-size: 12pt; white-space: normal; color: rgb(97, 175, 239);&quot;&gt;println&lt;/span&gt;&lt;span style=&quot;font-size: 12pt; white-space: normal;&quot;&gt;);&lt;/span&gt;&lt;/div&gt;&lt;/pre&gt;" style="text;html=1;strokeColor=none;fillColor=none;align=left;verticalAlign=top;whiteSpace=wrap;rounded=0;" parent="1" vertex="1">
                    <mxGeometry x="130" y="30" width="730" height="100" as="geometry"/>
                </mxCell>
                <mxCell id="X7lf60Jqiiey2AytOVT0-6" value="" style="edgeStyle=none;html=1;" parent="1" source="X7lf60Jqiiey2AytOVT0-3" target="X7lf60Jqiiey2AytOVT0-5" edge="1">
                    <mxGeometry relative="1" as="geometry"/>
                </mxCell>
                <mxCell id="X7lf60Jqiiey2AytOVT0-10" value="" style="edgeStyle=none;html=1;dashed=1;" parent="1" source="X7lf60Jqiiey2AytOVT0-3" target="X7lf60Jqiiey2AytOVT0-9" edge="1">
                    <mxGeometry relative="1" as="geometry"/>
                </mxCell>
                <mxCell id="X7lf60Jqiiey2AytOVT0-14" value="call" style="edgeLabel;html=1;align=center;verticalAlign=middle;resizable=0;points=[];" parent="X7lf60Jqiiey2AytOVT0-10" vertex="1" connectable="0">
                    <mxGeometry x="-0.075" relative="1" as="geometry">
                        <mxPoint as="offset"/>
                    </mxGeometry>
                </mxCell>
                <mxCell id="X7lf60Jqiiey2AytOVT0-3" value="&lt;pre style=&quot;background-color:#282c34;color:#bbbbbb;font-family:'JetBrains Mono',monospace;font-size:12.0pt;&quot;&gt;&lt;span style=&quot;color:#e5c07b;&quot;&gt;map&lt;/span&gt;&lt;/pre&gt;&lt;pre style=&quot;background-color:#282c34;color:#bbbbbb;font-family:'JetBrains Mono',monospace;font-size:12.0pt;&quot;&gt;&lt;span style=&quot;color:#e5c07b;&quot;&gt;333&lt;/span&gt;&lt;/pre&gt;" style="rounded=0;whiteSpace=wrap;html=1;" parent="1" vertex="1">
                    <mxGeometry x="305" y="190" width="120" height="60" as="geometry"/>
                </mxCell>
                <mxCell id="X7lf60Jqiiey2AytOVT0-8" style="edgeStyle=none;html=1;exitX=1;exitY=0.5;exitDx=0;exitDy=0;entryX=0;entryY=0.5;entryDx=0;entryDy=0;" parent="1" source="X7lf60Jqiiey2AytOVT0-5" target="X7lf60Jqiiey2AytOVT0-7" edge="1">
                    <mxGeometry relative="1" as="geometry"/>
                </mxCell>
                <mxCell id="X7lf60Jqiiey2AytOVT0-12" value="" style="edgeStyle=none;html=1;dashed=1;" parent="1" source="X7lf60Jqiiey2AytOVT0-5" target="X7lf60Jqiiey2AytOVT0-11" edge="1">
                    <mxGeometry relative="1" as="geometry"/>
                </mxCell>
                <mxCell id="X7lf60Jqiiey2AytOVT0-15" value="call" style="edgeLabel;html=1;align=center;verticalAlign=middle;resizable=0;points=[];" parent="X7lf60Jqiiey2AytOVT0-12" vertex="1" connectable="0">
                    <mxGeometry x="-0.075" y="2" relative="1" as="geometry">
                        <mxPoint as="offset"/>
                    </mxGeometry>
                </mxCell>
                <mxCell id="X7lf60Jqiiey2AytOVT0-5" value="&lt;pre style=&quot;background-color:#282c34;color:#bbbbbb;font-family:'JetBrains Mono',monospace;font-size:12.0pt;&quot;&gt;&lt;span style=&quot;color:#e5c07b;&quot;&gt;map&lt;/span&gt;&lt;/pre&gt;&lt;pre style=&quot;background-color:#282c34;color:#bbbbbb;font-family:'JetBrains Mono',monospace;font-size:12.0pt;&quot;&gt;&lt;span style=&quot;color:#e5c07b;&quot;&gt;111&lt;/span&gt;&lt;/pre&gt;" style="rounded=0;whiteSpace=wrap;html=1;" parent="1" vertex="1">
                    <mxGeometry x="610" y="190" width="120" height="60" as="geometry"/>
                </mxCell>
                <mxCell id="X7lf60Jqiiey2AytOVT0-7" value="&lt;pre style=&quot;background-color: rgb(40, 44, 52); font-family: &amp;quot;JetBrains Mono&amp;quot;, monospace; font-size: 12pt;&quot;&gt;&lt;font color=&quot;#e5c07b&quot;&gt;subscribe&lt;/font&gt;&lt;/pre&gt;&lt;pre style=&quot;background-color: rgb(40, 44, 52); font-family: &amp;quot;JetBrains Mono&amp;quot;, monospace; font-size: 12pt;&quot;&gt;&lt;font color=&quot;#e5c07b&quot;&gt;println&lt;/font&gt;&lt;/pre&gt;" style="rounded=0;whiteSpace=wrap;html=1;" parent="1" vertex="1">
                    <mxGeometry x="890" y="190" width="120" height="60" as="geometry"/>
                </mxCell>
                <mxCell id="X7lf60Jqiiey2AytOVT0-28" value="" style="edgeStyle=none;html=1;dashed=1;" parent="1" source="X7lf60Jqiiey2AytOVT0-9" target="X7lf60Jqiiey2AytOVT0-27" edge="1">
                    <mxGeometry relative="1" as="geometry"/>
                </mxCell>
                <mxCell id="X7lf60Jqiiey2AytOVT0-9" value="&lt;pre style=&quot;background-color:#282c34;color:#bbbbbb;font-family:'JetBrains Mono',monospace;font-size:12.0pt;&quot;&gt;&lt;pre style=&quot;font-family: &amp;quot;JetBrains Mono&amp;quot;, monospace; font-size: 12pt;&quot;&gt;&lt;span style=&quot;color:#e5c07b;&quot;&gt;FluxMapFuseable&lt;/span&gt;&lt;/pre&gt;&lt;pre style=&quot;font-family: &amp;quot;JetBrains Mono&amp;quot;, monospace; font-size: 12pt;&quot;&gt;&lt;span style=&quot;color:#e5c07b;&quot;&gt;F1&lt;/span&gt;&lt;/pre&gt;&lt;pre style=&quot;font-family: &amp;quot;JetBrains Mono&amp;quot;, monospace; font-size: 12pt;&quot;&gt;&lt;span style=&quot;color:#e5c07b;&quot;&gt;source = FluxArray&lt;/span&gt;&lt;/pre&gt;&lt;pre style=&quot;font-family: &amp;quot;JetBrains Mono&amp;quot;, monospace; font-size: 12pt;&quot;&gt;&lt;span style=&quot;color:#e5c07b;&quot;&gt;mapper = 333&lt;/span&gt;&lt;/pre&gt;&lt;/pre&gt;" style="rounded=0;whiteSpace=wrap;html=1;" parent="1" vertex="1">
                    <mxGeometry x="244.06" y="310" width="241.87" height="150" as="geometry"/>
                </mxCell>
                <mxCell id="X7lf60Jqiiey2AytOVT0-17" value="" style="edgeStyle=none;html=1;dashed=1;" parent="1" source="X7lf60Jqiiey2AytOVT0-11" target="X7lf60Jqiiey2AytOVT0-16" edge="1">
                    <mxGeometry relative="1" as="geometry"/>
                </mxCell>
                <mxCell id="X7lf60Jqiiey2AytOVT0-18" value="call" style="edgeLabel;html=1;align=center;verticalAlign=middle;resizable=0;points=[];" parent="X7lf60Jqiiey2AytOVT0-17" vertex="1" connectable="0">
                    <mxGeometry x="0.0625" y="3" relative="1" as="geometry">
                        <mxPoint as="offset"/>
                    </mxGeometry>
                </mxCell>
                <mxCell id="X7lf60Jqiiey2AytOVT0-25" value="" style="edgeStyle=none;html=1;dashed=1;" parent="1" source="X7lf60Jqiiey2AytOVT0-11" target="X7lf60Jqiiey2AytOVT0-24" edge="1">
                    <mxGeometry relative="1" as="geometry"/>
                </mxCell>
                <mxCell id="X7lf60Jqiiey2AytOVT0-11" value="&lt;pre style=&quot;background-color:#282c34;color:#bbbbbb;font-family:'JetBrains Mono',monospace;font-size:12.0pt;&quot;&gt;&lt;pre style=&quot;font-size: 12pt; font-family: &amp;quot;JetBrains Mono&amp;quot;, monospace;&quot;&gt;&lt;span style=&quot;color: rgb(229, 192, 123);&quot;&gt;FluxMapFuseable&lt;/span&gt;&lt;/pre&gt;&lt;pre style=&quot;font-size: 12pt; font-family: &amp;quot;JetBrains Mono&amp;quot;, monospace;&quot;&gt;&lt;span style=&quot;color: rgb(229, 192, 123);&quot;&gt;F2&lt;/span&gt;&lt;/pre&gt;&lt;pre style=&quot;font-size: 12pt; font-family: &amp;quot;JetBrains Mono&amp;quot;, monospace;&quot;&gt;&lt;span style=&quot;color: rgb(229, 192, 123);&quot;&gt;source  = F1&lt;/span&gt;&lt;/pre&gt;&lt;pre style=&quot;font-size: 12pt; font-family: &amp;quot;JetBrains Mono&amp;quot;, monospace;&quot;&gt;&lt;span style=&quot;color: rgb(229, 192, 123);&quot;&gt;mapper = 111&lt;/span&gt;&lt;/pre&gt;&lt;/pre&gt;" style="rounded=0;whiteSpace=wrap;html=1;" parent="1" vertex="1">
                    <mxGeometry x="547.5" y="310" width="245" height="150" as="geometry"/>
                </mxCell>
                <mxCell id="X7lf60Jqiiey2AytOVT0-20" value="" style="edgeStyle=none;html=1;dashed=1;" parent="1" source="X7lf60Jqiiey2AytOVT0-16" target="X7lf60Jqiiey2AytOVT0-19" edge="1">
                    <mxGeometry relative="1" as="geometry"/>
                </mxCell>
                <mxCell id="X7lf60Jqiiey2AytOVT0-16" value="&lt;pre style=&quot;background-color:#282c34;color:#bbbbbb;font-family:'JetBrains Mono',monospace;font-size:12.0pt;&quot;&gt;&lt;pre style=&quot;font-size: 12pt; font-family: &amp;quot;JetBrains Mono&amp;quot;, monospace;&quot;&gt;F2 call subscribe&lt;/pre&gt;&lt;/pre&gt;" style="rounded=0;whiteSpace=wrap;html=1;align=left;verticalAlign=top;" parent="1" vertex="1">
                    <mxGeometry x="872.5" y="310" width="245" height="150" as="geometry"/>
                </mxCell>
                <mxCell id="X7lf60Jqiiey2AytOVT0-22" value="" style="edgeStyle=none;html=1;dashed=1;" parent="1" source="X7lf60Jqiiey2AytOVT0-19" target="X7lf60Jqiiey2AytOVT0-21" edge="1">
                    <mxGeometry relative="1" as="geometry"/>
                </mxCell>
                <mxCell id="X7lf60Jqiiey2AytOVT0-23" value="调用&lt;br&gt;Flux&lt;br&gt;subscribe" style="edgeLabel;html=1;align=center;verticalAlign=middle;resizable=0;points=[];" parent="X7lf60Jqiiey2AytOVT0-22" vertex="1" connectable="0">
                    <mxGeometry x="0.144" y="2" relative="1" as="geometry">
                        <mxPoint as="offset"/>
                    </mxGeometry>
                </mxCell>
                <mxCell id="X7lf60Jqiiey2AytOVT0-19" value="&lt;pre style=&quot;background-color:#282c34;color:#bbbbbb;font-family:'JetBrains Mono',monospace;font-size:12.0pt;&quot;&gt;&lt;pre style=&quot;font-size: 12pt; font-family: &amp;quot;JetBrains Mono&amp;quot;, monospace;&quot;&gt;F2生成了一个lambdaSubscriber&lt;/pre&gt;&lt;pre style=&quot;font-size: 12pt; font-family: &amp;quot;JetBrains Mono&amp;quot;, monospace;&quot;&gt;consumer = println函数&lt;/pre&gt;&lt;/pre&gt;" style="rounded=0;whiteSpace=wrap;html=1;align=left;verticalAlign=top;" parent="1" vertex="1">
                    <mxGeometry x="1240" y="310" width="257.5" height="150" as="geometry"/>
                </mxCell>
                <mxCell id="9xtN2bsAwJLW-Tzmp14P-1" style="edgeStyle=none;html=1;entryX=1;entryY=0.5;entryDx=0;entryDy=0;" edge="1" parent="1" source="X7lf60Jqiiey2AytOVT0-21" target="X7lf60Jqiiey2AytOVT0-24">
                    <mxGeometry relative="1" as="geometry"/>
                </mxCell>
                <mxCell id="9xtN2bsAwJLW-Tzmp14P-2" value="&lt;i style=&quot;&quot;&gt;&lt;font style=&quot;&quot; color=&quot;#f06a1d&quot;&gt;&lt;b style=&quot;font-size: 14px;&quot;&gt;生成subscriber&lt;/b&gt;&lt;br&gt;&lt;b style=&quot;font-size: 14px;&quot;&gt;与map生成的Fuseable publisher对应&lt;/b&gt;&lt;br&gt;&lt;div style=&quot;text-align: left;&quot;&gt;&lt;span style=&quot;font-size: 14px;&quot;&gt;&lt;b&gt;所有的publisher最终都有subscriber对应。最终&lt;/b&gt;&lt;/span&gt;&lt;/div&gt;&lt;div style=&quot;text-align: left;&quot;&gt;&lt;span style=&quot;font-size: 14px;&quot;&gt;&lt;b&gt;响应数据是从subscrption的onRequest开始的，最终&lt;/b&gt;&lt;/span&gt;&lt;/div&gt;&lt;div style=&quot;text-align: left;&quot;&gt;&lt;span style=&quot;font-size: 14px;&quot;&gt;&lt;b&gt;调用subscrber的onNext向前推进。&lt;/b&gt;&lt;/span&gt;&lt;/div&gt;&lt;/font&gt;&lt;/i&gt;" style="edgeLabel;html=1;align=center;verticalAlign=middle;resizable=0;points=[];" vertex="1" connectable="0" parent="9xtN2bsAwJLW-Tzmp14P-1">
                    <mxGeometry x="0.0992" y="-4" relative="1" as="geometry">
                        <mxPoint as="offset"/>
                    </mxGeometry>
                </mxCell>
                <mxCell id="X7lf60Jqiiey2AytOVT0-21" value="&lt;pre style=&quot;background-color:#282c34;color:#bbbbbb;font-family:'JetBrains Mono',monospace;font-size:12.0pt;&quot;&gt;&lt;pre style=&quot;font-size: 12pt; font-family: &amp;quot;JetBrains Mono&amp;quot;, monospace;&quot;&gt;进入循环调用从右到左调用FluxMapFuseable&lt;/pre&gt;&lt;pre style=&quot;font-size: 12pt; font-family: &amp;quot;JetBrains Mono&amp;quot;, monospace;&quot;&gt;的subscribeOrReturn函数&lt;/pre&gt;&lt;pre style=&quot;font-size: 12pt; font-family: &amp;quot;JetBrains Mono&amp;quot;, monospace;&quot;&gt;为每个map生成对应的subscriber&lt;/pre&gt;&lt;/pre&gt;" style="rounded=0;whiteSpace=wrap;html=1;align=left;verticalAlign=top;" parent="1" vertex="1">
                    <mxGeometry x="1183.75" y="590" width="370" height="160" as="geometry"/>
                </mxCell>
                <mxCell id="X7lf60Jqiiey2AytOVT0-26" style="edgeStyle=none;html=1;entryX=0;entryY=1;entryDx=0;entryDy=0;dashed=1;" parent="1" source="X7lf60Jqiiey2AytOVT0-24" target="X7lf60Jqiiey2AytOVT0-19" edge="1">
                    <mxGeometry relative="1" as="geometry"/>
                </mxCell>
                <mxCell id="X7lf60Jqiiey2AytOVT0-24" value="&lt;pre style=&quot;background-color:#282c34;color:#bbbbbb;font-family:'JetBrains Mono',monospace;font-size:12.0pt;&quot;&gt;&lt;pre style=&quot;font-size: 12pt; font-family: &amp;quot;JetBrains Mono&amp;quot;, monospace;&quot;&gt;&lt;pre style=&quot;font-family: &amp;quot;JetBrains Mono&amp;quot;, monospace; font-size: 12pt;&quot;&gt;&lt;span style=&quot;color:#e5c07b;&quot;&gt;MapFuseableSubscriber&lt;/span&gt;&lt;/pre&gt;&lt;pre style=&quot;font-family: &amp;quot;JetBrains Mono&amp;quot;, monospace; font-size: 12pt;&quot;&gt;&lt;span style=&quot;color:#e5c07b;&quot;&gt;M1&lt;/span&gt;&lt;/pre&gt;&lt;pre style=&quot;font-family: &amp;quot;JetBrains Mono&amp;quot;, monospace; font-size: 12pt;&quot;&gt;&lt;span style=&quot;color:#e5c07b;&quot;&gt;actual = lambdaSubscriber&lt;/span&gt;&lt;/pre&gt;&lt;pre style=&quot;font-family: &amp;quot;JetBrains Mono&amp;quot;, monospace; font-size: 12pt;&quot;&gt;&lt;span style=&quot;color:#e5c07b;&quot;&gt;mapper = 111&lt;/span&gt;&lt;/pre&gt;&lt;pre style=&quot;font-family: &amp;quot;JetBrains Mono&amp;quot;, monospace; font-size: 12pt;&quot;&gt;&lt;span style=&quot;color:#e5c07b;&quot;&gt;s = M2&lt;/span&gt;&lt;/pre&gt;&lt;/pre&gt;&lt;/pre&gt;" style="rounded=0;whiteSpace=wrap;html=1;" parent="1" vertex="1">
                    <mxGeometry x="547.5" y="540" width="245" height="168" as="geometry"/>
                </mxCell>
                <mxCell id="X7lf60Jqiiey2AytOVT0-30" style="edgeStyle=none;html=1;dashed=1;" parent="1" source="X7lf60Jqiiey2AytOVT0-27" edge="1">
                    <mxGeometry relative="1" as="geometry">
                        <mxPoint x="103" y="629" as="targetPoint"/>
                    </mxGeometry>
                </mxCell>
                <mxCell id="X7lf60Jqiiey2AytOVT0-27" value="&lt;pre style=&quot;background-color:#282c34;color:#bbbbbb;font-family:'JetBrains Mono',monospace;font-size:12.0pt;&quot;&gt;&lt;pre style=&quot;font-family: &amp;quot;JetBrains Mono&amp;quot;, monospace; font-size: 12pt;&quot;&gt;&lt;pre style=&quot;font-size: 12pt; font-family: &amp;quot;JetBrains Mono&amp;quot;, monospace;&quot;&gt;&lt;pre style=&quot;font-family: &amp;quot;JetBrains Mono&amp;quot;, monospace; font-size: 12pt;&quot;&gt;&lt;span style=&quot;color: rgb(229, 192, 123);&quot;&gt;MapFuseableSubscriber&lt;/span&gt;&lt;/pre&gt;&lt;pre style=&quot;font-family: &amp;quot;JetBrains Mono&amp;quot;, monospace; font-size: 12pt;&quot;&gt;&lt;span style=&quot;color: rgb(229, 192, 123);&quot;&gt;M2&lt;/span&gt;&lt;/pre&gt;&lt;pre style=&quot;font-family: &amp;quot;JetBrains Mono&amp;quot;, monospace; font-size: 12pt;&quot;&gt;&lt;span style=&quot;color: rgb(229, 192, 123);&quot;&gt;actual = M1&lt;/span&gt;&lt;/pre&gt;&lt;pre style=&quot;font-family: &amp;quot;JetBrains Mono&amp;quot;, monospace; font-size: 12pt;&quot;&gt;&lt;span style=&quot;color: rgb(229, 192, 123);&quot;&gt;mapper = 333&lt;/span&gt;&lt;/pre&gt;&lt;pre style=&quot;font-family: &amp;quot;JetBrains Mono&amp;quot;, monospace; font-size: 12pt;&quot;&gt;&lt;span style=&quot;color: rgb(229, 192, 123);&quot;&gt;s = ArraySubscription&lt;/span&gt;&lt;/pre&gt;&lt;/pre&gt;&lt;/pre&gt;&lt;/pre&gt;" style="rounded=0;whiteSpace=wrap;html=1;" parent="1" vertex="1">
                    <mxGeometry x="244.06" y="540" width="252.94" height="174" as="geometry"/>
                </mxCell>
                <mxCell id="X7lf60Jqiiey2AytOVT0-33" style="edgeStyle=none;html=1;exitX=0.75;exitY=0;exitDx=0;exitDy=0;entryX=0.25;entryY=1;entryDx=0;entryDy=0;dashed=1;" parent="1" source="X7lf60Jqiiey2AytOVT0-31" target="X7lf60Jqiiey2AytOVT0-27" edge="1">
                    <mxGeometry relative="1" as="geometry"/>
                </mxCell>
                <mxCell id="X7lf60Jqiiey2AytOVT0-34" value="填写M2的s子段" style="edgeLabel;html=1;align=center;verticalAlign=middle;resizable=0;points=[];" parent="X7lf60Jqiiey2AytOVT0-33" vertex="1" connectable="0">
                    <mxGeometry x="-0.0629" y="3" relative="1" as="geometry">
                        <mxPoint as="offset"/>
                    </mxGeometry>
                </mxCell>
                <mxCell id="X7lf60Jqiiey2AytOVT0-36" value="" style="edgeStyle=none;html=1;dashed=1;" parent="1" source="X7lf60Jqiiey2AytOVT0-31" target="X7lf60Jqiiey2AytOVT0-35" edge="1">
                    <mxGeometry relative="1" as="geometry"/>
                </mxCell>
                <mxCell id="X7lf60Jqiiey2AytOVT0-39" value="call" style="edgeLabel;html=1;align=center;verticalAlign=middle;resizable=0;points=[];" parent="X7lf60Jqiiey2AytOVT0-36" vertex="1" connectable="0">
                    <mxGeometry x="-0.1499" y="1" relative="1" as="geometry">
                        <mxPoint as="offset"/>
                    </mxGeometry>
                </mxCell>
                <mxCell id="X7lf60Jqiiey2AytOVT0-31" value="M2.OnSubscribe(&lt;span style=&quot;color: rgb(229, 192, 123); background-color: rgb(40, 44, 52); font-family: &amp;quot;JetBrains Mono&amp;quot;, monospace; font-size: 12pt;&quot;&gt;ArraySubscription&lt;/span&gt;&lt;span style=&quot;background-color: initial;&quot;&gt;)&lt;br&gt;&lt;br&gt;生成&lt;/span&gt;&lt;span style=&quot;color: rgb(229, 192, 123); background-color: rgb(40, 44, 52); font-family: &amp;quot;JetBrains Mono&amp;quot;, monospace; font-size: 12pt;&quot;&gt;ArraySubscription&lt;br&gt;actual= M2&lt;br&gt;Array = array（目标数组）&lt;br&gt;&lt;br&gt;&lt;/span&gt;" style="rounded=0;whiteSpace=wrap;html=1;" parent="1" vertex="1">
                    <mxGeometry x="-41.5" y="839" width="283" height="152" as="geometry"/>
                </mxCell>
                <mxCell id="X7lf60Jqiiey2AytOVT0-37" style="edgeStyle=none;html=1;dashed=1;" parent="1" source="X7lf60Jqiiey2AytOVT0-35" target="X7lf60Jqiiey2AytOVT0-24" edge="1">
                    <mxGeometry relative="1" as="geometry"/>
                </mxCell>
                <mxCell id="X7lf60Jqiiey2AytOVT0-38" value="填写M1的s字段为M2" style="edgeLabel;html=1;align=center;verticalAlign=middle;resizable=0;points=[];" parent="X7lf60Jqiiey2AytOVT0-37" vertex="1" connectable="0">
                    <mxGeometry x="0.3192" y="-1" relative="1" as="geometry">
                        <mxPoint as="offset"/>
                    </mxGeometry>
                </mxCell>
                <mxCell id="X7lf60Jqiiey2AytOVT0-41" value="" style="edgeStyle=none;html=1;dashed=1;" parent="1" source="X7lf60Jqiiey2AytOVT0-35" target="X7lf60Jqiiey2AytOVT0-40" edge="1">
                    <mxGeometry relative="1" as="geometry"/>
                </mxCell>
                <mxCell id="X7lf60Jqiiey2AytOVT0-35" value="&lt;span style=&quot;color: rgb(229, 192, 123); background-color: rgb(40, 44, 52); font-family: &amp;quot;JetBrains Mono&amp;quot;, monospace; font-size: 12pt;&quot;&gt;M1.Onsubscribe(M2)&lt;br&gt;M2也是一个subscription&lt;br&gt;&lt;/span&gt;" style="rounded=0;whiteSpace=wrap;html=1;" parent="1" vertex="1">
                    <mxGeometry x="545" y="836" width="283" height="152" as="geometry"/>
                </mxCell>
                <mxCell id="X7lf60Jqiiey2AytOVT0-44" value="" style="edgeStyle=none;html=1;dashed=1;" parent="1" source="X7lf60Jqiiey2AytOVT0-40" target="X7lf60Jqiiey2AytOVT0-43" edge="1">
                    <mxGeometry relative="1" as="geometry"/>
                </mxCell>
                <mxCell id="9xtN2bsAwJLW-Tzmp14P-4" value="设置背压" style="edgeLabel;html=1;align=center;verticalAlign=middle;resizable=0;points=[];" vertex="1" connectable="0" parent="X7lf60Jqiiey2AytOVT0-44">
                    <mxGeometry x="-0.1021" y="2" relative="1" as="geometry">
                        <mxPoint as="offset"/>
                    </mxGeometry>
                </mxCell>
                <mxCell id="X7lf60Jqiiey2AytOVT0-40" value="&lt;span style=&quot;color: rgb(229, 192, 123); background-color: rgb(40, 44, 52); font-family: &amp;quot;JetBrains Mono&amp;quot;, monospace; font-size: 12pt;&quot;&gt;lambda.onSubscribe(M1)&lt;br&gt;&lt;/span&gt;" style="rounded=0;whiteSpace=wrap;html=1;" parent="1" vertex="1">
                    <mxGeometry x="908" y="836" width="283" height="152" as="geometry"/>
                </mxCell>
                <mxCell id="X7lf60Jqiiey2AytOVT0-46" value="" style="edgeStyle=none;html=1;dashed=1;" parent="1" source="X7lf60Jqiiey2AytOVT0-43" target="X7lf60Jqiiey2AytOVT0-45" edge="1">
                    <mxGeometry relative="1" as="geometry"/>
                </mxCell>
                <mxCell id="X7lf60Jqiiey2AytOVT0-43" value="&lt;span style=&quot;color: rgb(229, 192, 123); background-color: rgb(40, 44, 52); font-family: &amp;quot;JetBrains Mono&amp;quot;, monospace; font-size: 12pt;&quot;&gt;M1.request()&lt;br&gt;&lt;/span&gt;" style="rounded=0;whiteSpace=wrap;html=1;" parent="1" vertex="1">
                    <mxGeometry x="612" y="1087" width="216" height="141" as="geometry"/>
                </mxCell>
                <mxCell id="X7lf60Jqiiey2AytOVT0-48" value="" style="edgeStyle=none;html=1;dashed=1;" parent="1" source="X7lf60Jqiiey2AytOVT0-45" target="X7lf60Jqiiey2AytOVT0-47" edge="1">
                    <mxGeometry relative="1" as="geometry"/>
                </mxCell>
                <mxCell id="X7lf60Jqiiey2AytOVT0-45" value="&lt;span style=&quot;color: rgb(229, 192, 123); background-color: rgb(40, 44, 52); font-family: &amp;quot;JetBrains Mono&amp;quot;, monospace; font-size: 12pt;&quot;&gt;M2.request()&lt;br&gt;&lt;/span&gt;" style="rounded=0;whiteSpace=wrap;html=1;" parent="1" vertex="1">
                    <mxGeometry x="297" y="1087" width="179" height="137" as="geometry"/>
                </mxCell>
                <mxCell id="X7lf60Jqiiey2AytOVT0-50" value="" style="edgeStyle=none;html=1;dashed=1;" parent="1" source="X7lf60Jqiiey2AytOVT0-47" target="X7lf60Jqiiey2AytOVT0-49" edge="1">
                    <mxGeometry relative="1" as="geometry"/>
                </mxCell>
                <mxCell id="9xtN2bsAwJLW-Tzmp14P-5" value="最后一个&lt;br&gt;request开始处理数据了" style="edgeLabel;html=1;align=center;verticalAlign=middle;resizable=0;points=[];" vertex="1" connectable="0" parent="X7lf60Jqiiey2AytOVT0-50">
                    <mxGeometry x="-0.0875" y="-1" relative="1" as="geometry">
                        <mxPoint as="offset"/>
                    </mxGeometry>
                </mxCell>
                <mxCell id="X7lf60Jqiiey2AytOVT0-47" value="&lt;span style=&quot;color: rgb(229, 192, 123); background-color: rgb(40, 44, 52); font-family: &amp;quot;JetBrains Mono&amp;quot;, monospace; font-size: 12pt;&quot;&gt;ArraySubscription.&lt;br&gt;request&lt;br&gt;&lt;/span&gt;" style="rounded=0;whiteSpace=wrap;html=1;" parent="1" vertex="1">
                    <mxGeometry x="38" y="1087" width="179" height="137" as="geometry"/>
                </mxCell>
                <mxCell id="X7lf60Jqiiey2AytOVT0-52" value="" style="edgeStyle=none;html=1;dashed=1;" parent="1" source="X7lf60Jqiiey2AytOVT0-49" target="X7lf60Jqiiey2AytOVT0-51" edge="1">
                    <mxGeometry relative="1" as="geometry"/>
                </mxCell>
                <mxCell id="X7lf60Jqiiey2AytOVT0-49" value="&lt;span style=&quot;color: rgb(229, 192, 123); background-color: rgb(40, 44, 52); font-family: &amp;quot;JetBrains Mono&amp;quot;, monospace; font-size: 12pt;&quot;&gt;fastPath&lt;br&gt;&lt;/span&gt;" style="rounded=0;whiteSpace=wrap;html=1;" parent="1" vertex="1">
                    <mxGeometry x="38" y="1304" width="179" height="137" as="geometry"/>
                </mxCell>
                <mxCell id="X7lf60Jqiiey2AytOVT0-54" value="" style="edgeStyle=none;html=1;dashed=1;" parent="1" source="X7lf60Jqiiey2AytOVT0-51" target="X7lf60Jqiiey2AytOVT0-53" edge="1">
                    <mxGeometry relative="1" as="geometry"/>
                </mxCell>
                <mxCell id="X7lf60Jqiiey2AytOVT0-56" value="" style="edgeStyle=none;html=1;dashed=1;" parent="1" source="X7lf60Jqiiey2AytOVT0-51" target="X7lf60Jqiiey2AytOVT0-55" edge="1">
                    <mxGeometry relative="1" as="geometry"/>
                </mxCell>
                <mxCell id="X7lf60Jqiiey2AytOVT0-51" value="&lt;span style=&quot;color: rgb(229, 192, 123); background-color: rgb(40, 44, 52); font-family: &amp;quot;JetBrains Mono&amp;quot;, monospace; font-size: 12pt;&quot;&gt;M2.onNext(array[0])&lt;br&gt;&lt;/span&gt;" style="rounded=0;whiteSpace=wrap;html=1;" parent="1" vertex="1">
                    <mxGeometry x="292.93" y="1304" width="193" height="132" as="geometry"/>
                </mxCell>
                <mxCell id="X7lf60Jqiiey2AytOVT0-53" value="&lt;span style=&quot;color: rgb(229, 192, 123); background-color: rgb(40, 44, 52); font-family: &amp;quot;JetBrains Mono&amp;quot;, monospace; font-size: 12pt;&quot;&gt;m2.mapper.apply 333&lt;br&gt;&lt;/span&gt;" style="rounded=0;whiteSpace=wrap;html=1;" parent="1" vertex="1">
                    <mxGeometry x="292.93" y="1516" width="193" height="132" as="geometry"/>
                </mxCell>
                <mxCell id="X7lf60Jqiiey2AytOVT0-58" value="" style="edgeStyle=none;html=1;dashed=1;" parent="1" source="X7lf60Jqiiey2AytOVT0-55" target="X7lf60Jqiiey2AytOVT0-57" edge="1">
                    <mxGeometry relative="1" as="geometry"/>
                </mxCell>
                <mxCell id="X7lf60Jqiiey2AytOVT0-62" value="" style="edgeStyle=none;html=1;dashed=1;" parent="1" source="X7lf60Jqiiey2AytOVT0-55" target="X7lf60Jqiiey2AytOVT0-61" edge="1">
                    <mxGeometry relative="1" as="geometry"/>
                </mxCell>
                <mxCell id="X7lf60Jqiiey2AytOVT0-55" value="&lt;span style=&quot;color: rgb(229, 192, 123); background-color: rgb(40, 44, 52); font-family: &amp;quot;JetBrains Mono&amp;quot;, monospace; font-size: 12pt;&quot;&gt;M1.onNext(V)&lt;br&gt;&lt;/span&gt;" style="rounded=0;whiteSpace=wrap;html=1;" parent="1" vertex="1">
                    <mxGeometry x="565.9300000000001" y="1304" width="193" height="132" as="geometry"/>
                </mxCell>
                <mxCell id="X7lf60Jqiiey2AytOVT0-57" value="&lt;span style=&quot;color: rgb(229, 192, 123); background-color: rgb(40, 44, 52); font-family: &amp;quot;JetBrains Mono&amp;quot;, monospace; font-size: 12pt;&quot;&gt;M1.mapper.apply 111&lt;br&gt;&lt;/span&gt;" style="rounded=0;whiteSpace=wrap;html=1;" parent="1" vertex="1">
                    <mxGeometry x="565.9300000000001" y="1516" width="193" height="132" as="geometry"/>
                </mxCell>
                <mxCell id="X7lf60Jqiiey2AytOVT0-64" value="" style="edgeStyle=none;html=1;dashed=1;" parent="1" source="X7lf60Jqiiey2AytOVT0-61" target="X7lf60Jqiiey2AytOVT0-63" edge="1">
                    <mxGeometry relative="1" as="geometry"/>
                </mxCell>
                <mxCell id="X7lf60Jqiiey2AytOVT0-61" value="&lt;span style=&quot;color: rgb(229, 192, 123); background-color: rgb(40, 44, 52); font-family: &amp;quot;JetBrains Mono&amp;quot;, monospace; font-size: 12pt;&quot;&gt;lambda.onNext(V)&lt;br&gt;&lt;/span&gt;" style="rounded=0;whiteSpace=wrap;html=1;" parent="1" vertex="1">
                    <mxGeometry x="838.9300000000001" y="1304" width="193" height="132" as="geometry"/>
                </mxCell>
                <mxCell id="X7lf60Jqiiey2AytOVT0-63" value="&lt;span style=&quot;color: rgb(229, 192, 123); background-color: rgb(40, 44, 52); font-family: &amp;quot;JetBrains Mono&amp;quot;, monospace; font-size: 12pt;&quot;&gt;lambda.consum.accept&lt;br&gt;println v&lt;br&gt;&lt;/span&gt;" style="rounded=0;whiteSpace=wrap;html=1;" parent="1" vertex="1">
                    <mxGeometry x="838.9300000000001" y="1516" width="193" height="132" as="geometry"/>
                </mxCell>
            </root>
        </mxGraphModel>
    </diagram>
    <diagram id="5oGpynZTVNSTZ4GoptKM" name="Page-3">
        <mxGraphModel dx="2186" dy="1209" grid="0" gridSize="10" guides="1" tooltips="1" connect="1" arrows="1" fold="1" page="0" pageScale="1" pageWidth="850" pageHeight="1100" math="0" shadow="0">
            <root>
                <mxCell id="0"/>
                <mxCell id="1" parent="0"/>
                <mxCell id="z6BC8N99WyItg8R-3uKe-1" value="&lt;pre style=&quot;background-color:#282c34;color:#bbbbbb;font-family:'JetBrains Mono',monospace;font-size:12.0pt;&quot;&gt;&lt;span style=&quot;color:#e5c07b;&quot;&gt;CopyOnWriteArrayList&lt;/span&gt;&amp;lt;&lt;span style=&quot;color:#e5c07b;&quot;&gt;String&lt;/span&gt;&amp;gt; companyList = &lt;span style=&quot;color:#d55fde;font-style:italic;&quot;&gt;new &lt;/span&gt;&lt;span style=&quot;color:#e5c07b;&quot;&gt;CopyOnWriteArrayList&lt;/span&gt;&amp;lt;&amp;gt;();&lt;br&gt;&lt;br&gt;&lt;span style=&quot;color:#e5c07b;&quot;&gt;Flux&lt;/span&gt;&amp;lt;&lt;span style=&quot;color:#e5c07b;&quot;&gt;String&lt;/span&gt;&amp;gt; serviceResult = &lt;span style=&quot;color:#61afef;&quot;&gt;fortuneTop5&lt;/span&gt;();&lt;br&gt;&lt;br&gt;serviceResult&lt;br&gt;        .&lt;span style=&quot;color:#61afef;&quot;&gt;doOnNext&lt;/span&gt;(companyList::&lt;span style=&quot;color:#61afef;&quot;&gt;add&lt;/span&gt;)&lt;br&gt;        .&lt;span style=&quot;color:#61afef;&quot;&gt;subscribe&lt;/span&gt;()&lt;br&gt;&lt;span style=&quot;color:#a5b607;font-style:italic;&quot;&gt;//&lt;/span&gt;&lt;span style=&quot;color:#ff8c00;font-style:italic;&quot;&gt;todo: add an operator here, don't use any blocking operator!&lt;br&gt;&lt;/span&gt;;&lt;br&gt;&lt;br&gt;&lt;span style=&quot;color:#e5c07b;&quot;&gt;Thread&lt;/span&gt;.&lt;span style=&quot;color:#61afef;&quot;&gt;sleep&lt;/span&gt;(&lt;span style=&quot;color:#d19a66;&quot;&gt;1000&lt;/span&gt;); &lt;span style=&quot;color:#a5b607;font-style:italic;&quot;&gt;//bonus: can you explain why this line is needed?&lt;br&gt;&lt;/span&gt;&lt;span style=&quot;color:#a5b607;font-style:italic;&quot;&gt;&lt;br&gt;&lt;/span&gt;&lt;span style=&quot;color:#61afef;&quot;&gt;assertEquals&lt;/span&gt;(&lt;span style=&quot;color:#e5c07b;&quot;&gt;Arrays&lt;/span&gt;.&lt;span style=&quot;color:#61afef;&quot;&gt;asList&lt;/span&gt;(&lt;span style=&quot;color:#89ca78;&quot;&gt;&quot;Walmart&quot;&lt;/span&gt;, &lt;span style=&quot;color:#89ca78;&quot;&gt;&quot;Amazon&quot;&lt;/span&gt;, &lt;span style=&quot;color:#89ca78;&quot;&gt;&quot;Apple&quot;&lt;/span&gt;, &lt;span style=&quot;color:#89ca78;&quot;&gt;&quot;CVS Health&quot;&lt;/span&gt;, &lt;span style=&quot;color:#89ca78;&quot;&gt;&quot;UnitedHealth Group&quot;&lt;/span&gt;), companyList);&lt;/pre&gt;" style="text;html=1;strokeColor=none;fillColor=none;align=left;verticalAlign=top;whiteSpace=wrap;rounded=0;fontSize=14;fontColor=#F06A1D;" vertex="1" parent="1">
                    <mxGeometry x="-250" y="-95" width="1061" height="303" as="geometry"/>
                </mxCell>
                <mxCell id="z6BC8N99WyItg8R-3uKe-4" value="" style="edgeStyle=none;html=1;fontSize=14;fontColor=#e9ec18;" edge="1" parent="1" source="z6BC8N99WyItg8R-3uKe-2" target="z6BC8N99WyItg8R-3uKe-3">
                    <mxGeometry relative="1" as="geometry"/>
                </mxCell>
                <mxCell id="z6BC8N99WyItg8R-3uKe-11" style="edgeStyle=none;html=1;entryX=0;entryY=0.5;entryDx=0;entryDy=0;fontSize=14;fontColor=#e9ec18;" edge="1" parent="1" source="z6BC8N99WyItg8R-3uKe-2" target="z6BC8N99WyItg8R-3uKe-8">
                    <mxGeometry relative="1" as="geometry"/>
                </mxCell>
                <mxCell id="z6BC8N99WyItg8R-3uKe-12" value="3 fluxDefer.subscribe(peekSubcriber)" style="edgeLabel;html=1;align=center;verticalAlign=middle;resizable=0;points=[];fontSize=14;fontColor=#e9ec18;" vertex="1" connectable="0" parent="z6BC8N99WyItg8R-3uKe-11">
                    <mxGeometry x="-0.1647" y="-2" relative="1" as="geometry">
                        <mxPoint as="offset"/>
                    </mxGeometry>
                </mxCell>
                <mxCell id="z6BC8N99WyItg8R-3uKe-2" value="&lt;font color=&quot;#e9ec18&quot;&gt;FluxDefer&lt;/font&gt;" style="rounded=0;whiteSpace=wrap;html=1;fontSize=14;fontColor=#050505;" vertex="1" parent="1">
                    <mxGeometry x="-429" y="437" width="120" height="60" as="geometry"/>
                </mxCell>
                <mxCell id="z6BC8N99WyItg8R-3uKe-6" value="" style="edgeStyle=none;html=1;fontSize=14;fontColor=#e9ec18;" edge="1" parent="1" source="z6BC8N99WyItg8R-3uKe-3" target="z6BC8N99WyItg8R-3uKe-5">
                    <mxGeometry relative="1" as="geometry"/>
                </mxCell>
                <mxCell id="z6BC8N99WyItg8R-3uKe-7" value="1 subscribe" style="edgeLabel;html=1;align=center;verticalAlign=middle;resizable=0;points=[];fontSize=14;fontColor=#e9ec18;" vertex="1" connectable="0" parent="z6BC8N99WyItg8R-3uKe-6">
                    <mxGeometry x="-0.0712" y="-3" relative="1" as="geometry">
                        <mxPoint as="offset"/>
                    </mxGeometry>
                </mxCell>
                <mxCell id="z6BC8N99WyItg8R-3uKe-9" value="" style="edgeStyle=none;html=1;fontSize=14;fontColor=#e9ec18;" edge="1" parent="1" source="z6BC8N99WyItg8R-3uKe-3" target="z6BC8N99WyItg8R-3uKe-8">
                    <mxGeometry relative="1" as="geometry"/>
                </mxCell>
                <mxCell id="z6BC8N99WyItg8R-3uKe-10" value="&lt;pre style=&quot;background-color:#282c34;color:#bbbbbb;font-family:'JetBrains Mono',monospace;font-size:12.0pt;&quot;&gt;&lt;span style=&quot;color:#61afef;&quot;&gt;2 subscribeOrReturn&lt;/span&gt;&lt;/pre&gt;" style="edgeLabel;html=1;align=center;verticalAlign=middle;resizable=0;points=[];fontSize=14;fontColor=#e9ec18;" vertex="1" connectable="0" parent="z6BC8N99WyItg8R-3uKe-9">
                    <mxGeometry x="-0.1367" y="1" relative="1" as="geometry">
                        <mxPoint as="offset"/>
                    </mxGeometry>
                </mxCell>
                <mxCell id="z6BC8N99WyItg8R-3uKe-48" value="" style="edgeStyle=none;html=1;fontSize=14;fontColor=#FFFFFF;" edge="1" parent="1" source="z6BC8N99WyItg8R-3uKe-3" target="z6BC8N99WyItg8R-3uKe-47">
                    <mxGeometry relative="1" as="geometry"/>
                </mxCell>
                <mxCell id="z6BC8N99WyItg8R-3uKe-3" value="&lt;pre style=&quot;background-color:#282c34;color:#bbbbbb;font-family:'JetBrains Mono',monospace;font-size:12.0pt;&quot;&gt;&lt;span style=&quot;color:#e5c07b;&quot;&gt;FluxPeek&lt;/span&gt;&lt;/pre&gt;&lt;pre style=&quot;background-color:#282c34;color:#bbbbbb;font-family:'JetBrains Mono',monospace;font-size:12.0pt;&quot;&gt;&lt;span style=&quot;color:#e5c07b;&quot;&gt;source = fluxDefer&lt;/span&gt;&lt;/pre&gt;&lt;pre style=&quot;background-color:#282c34;color:#bbbbbb;font-family:'JetBrains Mono',monospace;font-size:12.0pt;&quot;&gt;&lt;pre style=&quot;font-family: &amp;quot;JetBrains Mono&amp;quot;, monospace; font-size: 12pt;&quot;&gt;&lt;span style=&quot;color:#d19a66;&quot;&gt;onNext = companyList::add&lt;/span&gt;&lt;/pre&gt;&lt;/pre&gt;" style="rounded=0;whiteSpace=wrap;html=1;fontSize=14;fontColor=#050505;" vertex="1" parent="1">
                    <mxGeometry x="31" y="412.5" width="307" height="109" as="geometry"/>
                </mxCell>
                <mxCell id="z6BC8N99WyItg8R-3uKe-5" value="&lt;pre style=&quot;background-color: rgb(40, 44, 52); font-family: &amp;quot;JetBrains Mono&amp;quot;, monospace; font-size: 12pt;&quot;&gt;&lt;font color=&quot;#e5c07b&quot;&gt;LambdaSubscriber&lt;/font&gt;&lt;/pre&gt;" style="rounded=0;whiteSpace=wrap;html=1;fontSize=14;fontColor=#050505;" vertex="1" parent="1">
                    <mxGeometry x="590" y="430" width="290" height="67" as="geometry"/>
                </mxCell>
                <mxCell id="z6BC8N99WyItg8R-3uKe-15" value="" style="edgeStyle=none;html=1;fontSize=14;fontColor=#e9ec18;" edge="1" parent="1" source="z6BC8N99WyItg8R-3uKe-8" target="z6BC8N99WyItg8R-3uKe-14">
                    <mxGeometry relative="1" as="geometry"/>
                </mxCell>
                <mxCell id="z6BC8N99WyItg8R-3uKe-16" value="4 fluxArray.subscribe(peekSubscriber)" style="edgeLabel;html=1;align=center;verticalAlign=middle;resizable=0;points=[];fontSize=14;fontColor=#e9ec18;" vertex="1" connectable="0" parent="z6BC8N99WyItg8R-3uKe-15">
                    <mxGeometry x="-0.0048" y="2" relative="1" as="geometry">
                        <mxPoint as="offset"/>
                    </mxGeometry>
                </mxCell>
                <mxCell id="z6BC8N99WyItg8R-3uKe-8" value="&lt;pre style=&quot;background-color:#282c34;color:#bbbbbb;font-family:'JetBrains Mono',monospace;font-size:12.0pt;&quot;&gt;&lt;pre style=&quot;font-family: &amp;quot;JetBrains Mono&amp;quot;, monospace; font-size: 12pt;&quot;&gt;&lt;span style=&quot;color:#61afef;&quot;&gt;PeekSubscriber&lt;/span&gt;&lt;/pre&gt;&lt;pre style=&quot;font-family: &amp;quot;JetBrains Mono&amp;quot;, monospace; font-size: 12pt;&quot;&gt;&lt;span style=&quot;color:#61afef;&quot;&gt;actual = lambdaSubcriber&lt;/span&gt;&lt;/pre&gt;&lt;pre style=&quot;font-family: &amp;quot;JetBrains Mono&amp;quot;, monospace; font-size: 12pt;&quot;&gt;&lt;span style=&quot;color:#61afef;&quot;&gt;parent = FluxPeek&lt;/span&gt;&lt;/pre&gt;&lt;pre style=&quot;font-family: &amp;quot;JetBrains Mono&amp;quot;, monospace; font-size: 12pt;&quot;&gt;&lt;span style=&quot;color:#61afef;&quot;&gt;s = arraySubscription&lt;/span&gt;&lt;/pre&gt;&lt;/pre&gt;" style="rounded=0;whiteSpace=wrap;html=1;fontSize=14;fontColor=#050505;" vertex="1" parent="1">
                    <mxGeometry x="74" y="646" width="322" height="135" as="geometry"/>
                </mxCell>
                <mxCell id="z6BC8N99WyItg8R-3uKe-18" value="" style="edgeStyle=none;html=1;fontSize=14;fontColor=#e9ec18;" edge="1" parent="1" source="z6BC8N99WyItg8R-3uKe-14" target="z6BC8N99WyItg8R-3uKe-17">
                    <mxGeometry relative="1" as="geometry"/>
                </mxCell>
                <mxCell id="z6BC8N99WyItg8R-3uKe-14" value="&lt;pre style=&quot;background-color:#282c34;color:#bbbbbb;font-family:'JetBrains Mono',monospace;font-size:12.0pt;&quot;&gt;&lt;pre style=&quot;font-family: &amp;quot;JetBrains Mono&amp;quot;, monospace; font-size: 12pt;&quot;&gt;&lt;span style=&quot;color:#e5c07b;&quot;&gt;ArraySubscription&lt;/span&gt;&lt;/pre&gt;&lt;pre style=&quot;font-family: &amp;quot;JetBrains Mono&amp;quot;, monospace; font-size: 12pt;&quot;&gt;&lt;span style=&quot;color:#e5c07b;&quot;&gt;actual = peekSubscriber&lt;/span&gt;&lt;/pre&gt;&lt;pre style=&quot;font-family: &amp;quot;JetBrains Mono&amp;quot;, monospace; font-size: 12pt;&quot;&gt;&lt;span style=&quot;color:#e5c07b;&quot;&gt;array = top5&lt;/span&gt;&lt;/pre&gt;&lt;/pre&gt;" style="rounded=0;whiteSpace=wrap;html=1;fontSize=14;fontColor=#050505;" vertex="1" parent="1">
                    <mxGeometry x="-513" y="650" width="308" height="109" as="geometry"/>
                </mxCell>
                <mxCell id="z6BC8N99WyItg8R-3uKe-20" value="6 设置s = arraySubscription" style="edgeStyle=none;html=1;fontSize=14;fontColor=#e9ec18;" edge="1" parent="1" source="z6BC8N99WyItg8R-3uKe-17" target="z6BC8N99WyItg8R-3uKe-8">
                    <mxGeometry relative="1" as="geometry"/>
                </mxCell>
                <mxCell id="z6BC8N99WyItg8R-3uKe-23" value="" style="edgeStyle=none;html=1;fontSize=14;fontColor=#e9ec18;" edge="1" parent="1" source="z6BC8N99WyItg8R-3uKe-17" target="z6BC8N99WyItg8R-3uKe-22">
                    <mxGeometry relative="1" as="geometry"/>
                </mxCell>
                <mxCell id="z6BC8N99WyItg8R-3uKe-17" value="&lt;pre style=&quot;background-color: rgb(40, 44, 52); font-family: &amp;quot;JetBrains Mono&amp;quot;, monospace; font-size: 12pt;&quot;&gt;&lt;pre style=&quot;font-family: &amp;quot;JetBrains Mono&amp;quot;, monospace; font-size: 12pt;&quot;&gt;&lt;span style=&quot;color: rgb(233, 236, 24); font-family: Helvetica; font-size: 14px; background-color: rgb(24, 20, 29);&quot;&gt;5 peekSubcriber.onSubscribe(arraySubscription)&lt;/span&gt;&lt;br&gt;&lt;/pre&gt;&lt;/pre&gt;" style="rounded=0;whiteSpace=wrap;html=1;fontSize=14;fontColor=#050505;" vertex="1" parent="1">
                    <mxGeometry x="76" y="894" width="308" height="109" as="geometry"/>
                </mxCell>
                <mxCell id="z6BC8N99WyItg8R-3uKe-25" value="" style="edgeStyle=none;html=1;fontSize=14;fontColor=#e9ec18;" edge="1" parent="1" source="z6BC8N99WyItg8R-3uKe-22" target="z6BC8N99WyItg8R-3uKe-24">
                    <mxGeometry relative="1" as="geometry"/>
                </mxCell>
                <mxCell id="z6BC8N99WyItg8R-3uKe-22" value="&lt;pre style=&quot;background-color: rgb(40, 44, 52); font-family: &amp;quot;JetBrains Mono&amp;quot;, monospace; font-size: 12pt;&quot;&gt;&lt;pre style=&quot;font-family: &amp;quot;JetBrains Mono&amp;quot;, monospace; font-size: 12pt;&quot;&gt;&lt;span style=&quot;color: rgb(233, 236, 24); font-family: Helvetica; font-size: 14px; background-color: rgb(24, 20, 29);&quot;&gt;7&lt;/span&gt;&lt;br&gt;&lt;/pre&gt;&lt;pre style=&quot;font-family: &amp;quot;JetBrains Mono&amp;quot;, monospace; font-size: 12pt;&quot;&gt;&lt;span style=&quot;color: rgb(233, 236, 24); font-family: Helvetica; font-size: 14px; background-color: rgb(24, 20, 29);&quot;&gt;lambda.onSubscribe(peekSubscriber)&lt;/span&gt;&lt;/pre&gt;&lt;/pre&gt;" style="rounded=0;whiteSpace=wrap;html=1;fontSize=14;fontColor=#050505;" vertex="1" parent="1">
                    <mxGeometry x="584" y="891" width="308" height="109" as="geometry"/>
                </mxCell>
                <mxCell id="z6BC8N99WyItg8R-3uKe-28" value="" style="edgeStyle=none;html=1;fontSize=14;fontColor=#e9ec18;" edge="1" parent="1" source="z6BC8N99WyItg8R-3uKe-24" target="z6BC8N99WyItg8R-3uKe-27">
                    <mxGeometry relative="1" as="geometry"/>
                </mxCell>
                <mxCell id="z6BC8N99WyItg8R-3uKe-29" value="9&amp;nbsp;&lt;br&gt;arraySubscription.onRequest" style="edgeLabel;html=1;align=center;verticalAlign=middle;resizable=0;points=[];fontSize=14;fontColor=#e9ec18;" vertex="1" connectable="0" parent="z6BC8N99WyItg8R-3uKe-28">
                    <mxGeometry x="0.044" y="4" relative="1" as="geometry">
                        <mxPoint as="offset"/>
                    </mxGeometry>
                </mxCell>
                <mxCell id="z6BC8N99WyItg8R-3uKe-24" value="&lt;pre style=&quot;&quot;&gt;&lt;pre style=&quot;&quot;&gt;&lt;font face=&quot;Helvetica&quot; color=&quot;#e9ec18&quot;&gt;&lt;span style=&quot;background-color: rgb(24, 20, 29);&quot;&gt;8&lt;/span&gt;&lt;/font&gt;&lt;/pre&gt;&lt;pre style=&quot;&quot;&gt;&lt;font face=&quot;Helvetica&quot; color=&quot;#e9ec18&quot;&gt;&lt;span style=&quot;background-color: rgb(24, 20, 29);&quot;&gt;peekSubscriber.onRequest&lt;/span&gt;&lt;/font&gt;&lt;/pre&gt;&lt;/pre&gt;" style="rounded=0;whiteSpace=wrap;html=1;fontSize=14;fontColor=#050505;" vertex="1" parent="1">
                    <mxGeometry x="81" y="1089" width="308" height="109" as="geometry"/>
                </mxCell>
                <mxCell id="z6BC8N99WyItg8R-3uKe-31" value="" style="edgeStyle=none;html=1;fontSize=14;fontColor=#e9ec18;" edge="1" parent="1" source="z6BC8N99WyItg8R-3uKe-27" target="z6BC8N99WyItg8R-3uKe-30">
                    <mxGeometry relative="1" as="geometry"/>
                </mxCell>
                <mxCell id="z6BC8N99WyItg8R-3uKe-42" value="loop" style="edgeLabel;html=1;align=center;verticalAlign=middle;resizable=0;points=[];fontSize=14;fontColor=#FFFFFF;" vertex="1" connectable="0" parent="z6BC8N99WyItg8R-3uKe-31">
                    <mxGeometry x="-0.0393" y="-3" relative="1" as="geometry">
                        <mxPoint y="1" as="offset"/>
                    </mxGeometry>
                </mxCell>
                <mxCell id="z6BC8N99WyItg8R-3uKe-27" value="&lt;font color=&quot;#e9ec18&quot;&gt;10&lt;br&gt;fastPath&lt;br&gt;&lt;/font&gt;" style="rounded=0;whiteSpace=wrap;html=1;fontSize=14;fontColor=#050505;" vertex="1" parent="1">
                    <mxGeometry x="-515" y="980" width="308" height="109" as="geometry"/>
                </mxCell>
                <mxCell id="z6BC8N99WyItg8R-3uKe-33" value="" style="edgeStyle=none;html=1;fontSize=14;fontColor=#e9ec18;" edge="1" parent="1" source="z6BC8N99WyItg8R-3uKe-30" target="z6BC8N99WyItg8R-3uKe-32">
                    <mxGeometry relative="1" as="geometry"/>
                </mxCell>
                <mxCell id="z6BC8N99WyItg8R-3uKe-30" value="&lt;font color=&quot;#e9ec18&quot;&gt;11&lt;br&gt;peekSubscriber.onNext(v)&lt;br&gt;&lt;/font&gt;" style="rounded=0;whiteSpace=wrap;html=1;fontSize=14;fontColor=#050505;" vertex="1" parent="1">
                    <mxGeometry x="70" y="1317" width="308" height="109" as="geometry"/>
                </mxCell>
                <mxCell id="z6BC8N99WyItg8R-3uKe-35" value="" style="edgeStyle=none;html=1;fontSize=14;fontColor=#e9ec18;" edge="1" parent="1" source="z6BC8N99WyItg8R-3uKe-32" target="z6BC8N99WyItg8R-3uKe-34">
                    <mxGeometry relative="1" as="geometry"/>
                </mxCell>
                <mxCell id="z6BC8N99WyItg8R-3uKe-39" value="" style="edgeStyle=none;html=1;fontSize=14;fontColor=#FFFFFF;" edge="1" parent="1" source="z6BC8N99WyItg8R-3uKe-32" target="z6BC8N99WyItg8R-3uKe-38">
                    <mxGeometry relative="1" as="geometry"/>
                </mxCell>
                <mxCell id="z6BC8N99WyItg8R-3uKe-32" value="&lt;font color=&quot;#e9ec18&quot;&gt;12&lt;br&gt;&lt;/font&gt;&lt;pre style=&quot;background-color:#282c34;color:#bbbbbb;font-family:'JetBrains Mono',monospace;font-size:12.0pt;&quot;&gt;nextHook.&lt;span style=&quot;color:#61afef;&quot;&gt;accept&lt;/span&gt;(&lt;span style=&quot;color:#d19a66;&quot;&gt;t&lt;/span&gt;);&lt;/pre&gt;&lt;pre style=&quot;background-color:#282c34;color:#bbbbbb;font-family:'JetBrains Mono',monospace;font-size:12.0pt;&quot;&gt;companyList.add(t)&lt;/pre&gt;" style="rounded=0;whiteSpace=wrap;html=1;fontSize=14;fontColor=#050505;" vertex="1" parent="1">
                    <mxGeometry x="70" y="1506" width="308" height="109" as="geometry"/>
                </mxCell>
                <mxCell id="z6BC8N99WyItg8R-3uKe-37" value="" style="edgeStyle=none;html=1;fontSize=14;fontColor=#FFFFFF;" edge="1" parent="1" source="z6BC8N99WyItg8R-3uKe-34" target="z6BC8N99WyItg8R-3uKe-36">
                    <mxGeometry relative="1" as="geometry"/>
                </mxCell>
                <mxCell id="z6BC8N99WyItg8R-3uKe-34" value="&lt;font color=&quot;#e9ec18&quot;&gt;13&amp;nbsp;&lt;br&gt;&lt;/font&gt;&lt;font color=&quot;#ffffff&quot;&gt;lambda.onNext(t)&lt;/font&gt;" style="rounded=0;whiteSpace=wrap;html=1;fontSize=14;fontColor=#050505;" vertex="1" parent="1">
                    <mxGeometry x="458" y="1506" width="308" height="109" as="geometry"/>
                </mxCell>
                <mxCell id="z6BC8N99WyItg8R-3uKe-40" style="edgeStyle=none;html=1;fontSize=14;fontColor=#FFFFFF;" edge="1" parent="1" source="z6BC8N99WyItg8R-3uKe-36" target="z6BC8N99WyItg8R-3uKe-32">
                    <mxGeometry relative="1" as="geometry"/>
                </mxCell>
                <mxCell id="z6BC8N99WyItg8R-3uKe-41" value="loop" style="edgeLabel;html=1;align=center;verticalAlign=middle;resizable=0;points=[];fontSize=14;fontColor=#FFFFFF;" vertex="1" connectable="0" parent="z6BC8N99WyItg8R-3uKe-40">
                    <mxGeometry x="-0.0804" y="4" relative="1" as="geometry">
                        <mxPoint as="offset"/>
                    </mxGeometry>
                </mxCell>
                <mxCell id="z6BC8N99WyItg8R-3uKe-36" value="&lt;font color=&quot;#e9ec18&quot;&gt;nothing in onNext&lt;/font&gt;" style="rounded=0;whiteSpace=wrap;html=1;fontSize=14;fontColor=#050505;" vertex="1" parent="1">
                    <mxGeometry x="458" y="1695" width="308" height="109" as="geometry"/>
                </mxCell>
                <mxCell id="z6BC8N99WyItg8R-3uKe-44" value="" style="edgeStyle=none;html=1;fontSize=14;fontColor=#FFFFFF;" edge="1" parent="1" source="z6BC8N99WyItg8R-3uKe-38" target="z6BC8N99WyItg8R-3uKe-43">
                    <mxGeometry relative="1" as="geometry"/>
                </mxCell>
                <mxCell id="z6BC8N99WyItg8R-3uKe-38" value="&lt;font color=&quot;#e9ec18&quot;&gt;14&amp;nbsp;&lt;br&gt;lambda.onComplete&lt;br&gt;do nothing&lt;br&gt;&lt;/font&gt;" style="rounded=0;whiteSpace=wrap;html=1;fontSize=14;fontColor=#050505;" vertex="1" parent="1">
                    <mxGeometry x="450" y="1896" width="308" height="109" as="geometry"/>
                </mxCell>
                <mxCell id="z6BC8N99WyItg8R-3uKe-43" value="&lt;font color=&quot;#e9ec18&quot;&gt;over&lt;br&gt;&lt;/font&gt;" style="rounded=0;whiteSpace=wrap;html=1;fontSize=14;fontColor=#050505;" vertex="1" parent="1">
                    <mxGeometry x="450" y="2085" width="308" height="109" as="geometry"/>
                </mxCell>
                <mxCell id="z6BC8N99WyItg8R-3uKe-47" value="&lt;pre style=&quot;background-color: rgb(40, 44, 52); font-family: &amp;quot;JetBrains Mono&amp;quot;, monospace; font-size: 12pt;&quot;&gt;&lt;font color=&quot;#e5c07b&quot;&gt;doOnNext&lt;/font&gt;&lt;/pre&gt;" style="rounded=0;whiteSpace=wrap;html=1;fontSize=14;fontColor=#050505;" vertex="1" parent="1">
                    <mxGeometry x="31" y="223.5" width="307" height="109" as="geometry"/>
                </mxCell>
            </root>
        </mxGraphModel>
    </diagram>
</mxfile>